<svg width="3215" height="1765" viewBox="0 0 3215 1765" fill="none" xmlns="http://www.w3.org/2000/svg">
<g filter="url(#filter0_f_60_39)">
<path d="M-79 1020.79L21.7875 968.048L122.575 954.868L223.363 941.689L324.15 1073.52L424.938 1152.63L525.725 954.868L626.513 1139.45L727.3 928.496L828.088 743.931L928.875 796.662L1029.66 757.11L1130.45 888.944L1231.24 823.035L1332.03 994.42L1432.81 1152.63L1533.6 1073.52L1634.4 743.931L1735.19 994.42L1835.97 1126.25L1936.76 902.138L2037.55 770.29L2138.34 730.738L2239.12 915.317L2339.91 783.483L2440.7 770.29L2541.49 783.483L2642.28 1073.52L2743.06 994.42L2843.85 1179L2944.64 994.42L3045.43 875.765L3146.21 1113.07H3247V32.0025H3146.21H3045.43H2944.64H2843.85H2743.06H2642.28H2541.49H2440.7H2339.91H2239.12H2138.34H2037.55H1936.76H1835.97H1735.19H1634.4H1533.6H1432.81H1332.03H1231.24H1130.45H1029.66H928.875H828.088H727.3H626.513H525.725H424.938H324.15H223.363H122.575H21.7875H-79V1020.79Z" fill="url(#paint0_radial_60_39)"/>
<path d="M-79 1020.79L21.7875 968.048L122.575 954.868L223.363 941.689L324.15 1073.52L424.938 1152.63L525.725 954.868L626.513 1139.45L727.3 928.496L828.088 743.931L928.875 796.662L1029.66 757.11L1130.45 888.944L1231.24 823.035L1332.03 994.42L1432.81 1152.63L1533.6 1073.52L1634.4 743.931L1735.19 994.42L1835.97 1126.25L1936.76 902.138L2037.55 770.29L2138.34 730.738L2239.12 915.317L2339.91 783.483L2440.7 770.29L2541.49 783.483L2642.28 1073.52L2743.06 994.42L2843.85 1179L2944.64 994.42L3045.43 875.765L3146.21 1113.07H3247V32.0025H3146.21H3045.43H2944.64H2843.85H2743.06H2642.28H2541.49H2440.7H2339.91H2239.12H2138.34H2037.55H1936.76H1835.97H1735.19H1634.4H1533.6H1432.81H1332.03H1231.24H1130.45H1029.66H928.875H828.088H727.3H626.513H525.725H424.938H324.15H223.363H122.575H21.7875H-79V1020.79Z" fill="#D8C3C3" fill-opacity="0.2"/>
<path d="M-79 1020.79L21.7875 968.048L122.575 954.868L223.363 941.689L324.15 1073.52L424.938 1152.63L525.725 954.868L626.513 1139.45L727.3 928.496L828.088 743.931L928.875 796.662L1029.66 757.11L1130.45 888.944L1231.24 823.035L1332.03 994.42L1432.81 1152.63L1533.6 1073.52L1634.4 743.931L1735.19 994.42L1835.97 1126.25L1936.76 902.138L2037.55 770.29L2138.34 730.738L2239.12 915.317L2339.91 783.483L2440.7 770.29L2541.49 783.483L2642.28 1073.52L2743.06 994.42L2843.85 1179L2944.64 994.42L3045.43 875.765L3146.21 1113.07H3247" fill="url(#paint1_radial_60_39)"/>
<path d="M-79 1020.79L21.7875 968.048L122.575 954.868L223.363 941.689L324.15 1073.52L424.938 1152.63L525.725 954.868L626.513 1139.45L727.3 928.496L828.088 743.931L928.875 796.662L1029.66 757.11L1130.45 888.944L1231.24 823.035L1332.03 994.42L1432.81 1152.63L1533.6 1073.52L1634.4 743.931L1735.19 994.42L1835.97 1126.25L1936.76 902.138L2037.55 770.29L2138.34 730.738L2239.12 915.317L2339.91 783.483L2440.7 770.29L2541.49 783.483L2642.28 1073.52L2743.06 994.42L2843.85 1179L2944.64 994.42L3045.43 875.765L3146.21 1113.07H3247" fill="#D8C3C3" fill-opacity="0.2"/>
<path d="M-79 1020.79L21.7875 968.048L122.575 954.868L223.363 941.689L324.15 1073.52L424.938 1152.63L525.725 954.868L626.513 1139.45L727.3 928.496L828.088 743.931L928.875 796.662L1029.66 757.11L1130.45 888.944L1231.24 823.035L1332.03 994.42L1432.81 1152.63L1533.6 1073.52L1634.4 743.931L1735.19 994.42L1835.97 1126.25L1936.76 902.138L2037.55 770.29L2138.34 730.738L2239.12 915.317L2339.91 783.483L2440.7 770.29L2541.49 783.483L2642.28 1073.52L2743.06 994.42L2843.85 1179L2944.64 994.42L3045.43 875.765L3146.21 1113.07H3247" stroke="#CDC1DD" stroke-width="2"/>
<path d="M-79 954.868L21.7875 783.483L122.575 954.868L223.363 888.944H324.15L424.938 757.11L525.725 783.483L626.513 651.634L727.3 704.379L828.088 598.903L928.875 717.558L1029.66 757.11L1130.45 902.137L1231.24 941.689L1332.03 572.531L1432.81 717.558L1533.6 1007.6L1634.4 757.11L1735.19 743.931L1835.97 770.289L1936.76 717.558L2037.55 572.531L2138.34 981.241L2239.12 875.765L2339.91 612.083L2440.7 730.737L2541.49 875.765L2642.28 981.241L2743.06 862.586L2843.85 691.186L2944.64 862.586L3045.43 638.455L3146.21 598.903L3247 968.047V32.002H3146.21H3045.43H2944.64H2843.85H2743.06H2642.28H2541.49H2440.7H2339.91H2239.12H2138.34H2037.55H1936.76H1835.97H1735.19H1634.4H1533.6H1432.81H1332.03H1231.24H1130.45H1029.66H928.875H828.088H727.3H626.513H525.725H424.938H324.15H223.363H122.575H21.7875H-79V954.868Z" fill="url(#paint2_radial_60_39)"/>
<path d="M-79 954.868L21.7875 783.483L122.575 954.868L223.363 888.944H324.15L424.938 757.11L525.725 783.483L626.513 651.634L727.3 704.379L828.088 598.903L928.875 717.558L1029.66 757.11L1130.45 902.137L1231.24 941.689L1332.03 572.531L1432.81 717.558L1533.6 1007.6L1634.4 757.11L1735.19 743.931L1835.97 770.289L1936.76 717.558L2037.55 572.531L2138.34 981.241L2239.12 875.765L2339.91 612.083L2440.7 730.737L2541.49 875.765L2642.28 981.241L2743.06 862.586L2843.85 691.186L2944.64 862.586L3045.43 638.455L3146.21 598.903L3247 968.047V32.002H3146.21H3045.43H2944.64H2843.85H2743.06H2642.28H2541.49H2440.7H2339.91H2239.12H2138.34H2037.55H1936.76H1835.97H1735.19H1634.4H1533.6H1432.81H1332.03H1231.24H1130.45H1029.66H928.875H828.088H727.3H626.513H525.725H424.938H324.15H223.363H122.575H21.7875H-79V954.868Z" fill="#D8C3C3" fill-opacity="0.2"/>
<path d="M-79 954.868L21.7875 783.483L122.575 954.868L223.363 888.944H324.15L424.938 757.11L525.725 783.483L626.513 651.634L727.3 704.379L828.088 598.904L928.875 717.558L1029.66 757.11L1130.45 902.137L1231.24 941.689L1332.03 572.531L1432.81 717.558L1533.6 1007.6L1634.4 757.11L1735.19 743.931L1835.97 770.289L1936.76 717.558L2037.55 572.531L2138.34 981.241L2239.12 875.765L2339.91 612.083L2440.7 730.737L2541.49 875.765L2642.28 981.241L2743.06 862.586L2843.85 691.186L2944.64 862.586L3045.43 638.455L3146.21 598.904L3247 968.047" fill="url(#paint3_radial_60_39)"/>
<path d="M-79 954.868L21.7875 783.483L122.575 954.868L223.363 888.944H324.15L424.938 757.11L525.725 783.483L626.513 651.634L727.3 704.379L828.088 598.904L928.875 717.558L1029.66 757.11L1130.45 902.137L1231.24 941.689L1332.03 572.531L1432.81 717.558L1533.6 1007.6L1634.4 757.11L1735.19 743.931L1835.97 770.289L1936.76 717.558L2037.55 572.531L2138.34 981.241L2239.12 875.765L2339.91 612.083L2440.7 730.737L2541.49 875.765L2642.28 981.241L2743.06 862.586L2843.85 691.186L2944.64 862.586L3045.43 638.455L3146.21 598.904L3247 968.047" fill="#D8C3C3" fill-opacity="0.2"/>
<path d="M-79 954.868L21.7875 783.483L122.575 954.868L223.363 888.944H324.15L424.938 757.11L525.725 783.483L626.513 651.634L727.3 704.379L828.088 598.904L928.875 717.558L1029.66 757.11L1130.45 902.137L1231.24 941.689L1332.03 572.531L1432.81 717.558L1533.6 1007.6L1634.4 757.11L1735.19 743.931L1835.97 770.289L1936.76 717.558L2037.55 572.531L2138.34 981.241L2239.12 875.765L2339.91 612.083L2440.7 730.737L2541.49 875.765L2642.28 981.241L2743.06 862.586L2843.85 691.186L2944.64 862.586L3045.43 638.455L3146.21 598.904L3247 968.047" stroke="#CDC1DD" stroke-width="2"/>
<path d="M-79 651.631L21.7875 532.977L122.575 546.17L223.363 612.08L324.15 796.659L424.938 651.631L525.725 546.17L626.513 453.873L727.3 796.659L828.088 743.928L928.875 374.77L1029.66 612.08L1130.45 598.901L1231.24 625.273L1332.03 678.004L1432.81 757.107L1533.6 467.067L1634.4 559.349L1735.19 598.901L1835.97 546.17L1936.76 387.964L2037.55 506.619L2138.34 546.17L2239.12 809.838L2339.91 757.107L2440.7 467.067L2541.49 783.48L2642.28 493.425L2743.06 546.17L2843.85 414.322L2944.64 770.286L3045.43 691.183L3146.21 612.08L3247 493.425V31.9993H3146.21H3045.43H2944.64H2843.85H2743.06H2642.28H2541.49H2440.7H2339.91H2239.12H2138.34H2037.55H1936.76H1835.97H1735.19H1634.4H1533.6H1432.81H1332.03H1231.24H1130.45H1029.66H928.875H828.088H727.3H626.513H525.725H424.938H324.15H223.363H122.575H21.7875H-79V651.631Z" fill="url(#paint4_radial_60_39)"/>
<path d="M-79 651.631L21.7875 532.977L122.575 546.17L223.363 612.08L324.15 796.659L424.938 651.631L525.725 546.17L626.513 453.873L727.3 796.659L828.088 743.928L928.875 374.77L1029.66 612.08L1130.45 598.901L1231.24 625.273L1332.03 678.004L1432.81 757.107L1533.6 467.067L1634.4 559.349L1735.19 598.901L1835.97 546.17L1936.76 387.964L2037.55 506.619L2138.34 546.17L2239.12 809.838L2339.91 757.107L2440.7 467.067L2541.49 783.48L2642.28 493.425L2743.06 546.17L2843.85 414.322L2944.64 770.286L3045.43 691.183L3146.21 612.08L3247 493.425V31.9993H3146.21H3045.43H2944.64H2843.85H2743.06H2642.28H2541.49H2440.7H2339.91H2239.12H2138.34H2037.55H1936.76H1835.97H1735.19H1634.4H1533.6H1432.81H1332.03H1231.24H1130.45H1029.66H928.875H828.088H727.3H626.513H525.725H424.938H324.15H223.363H122.575H21.7875H-79V651.631Z" fill="#D8C3C3" fill-opacity="0.2"/>
<path d="M-79 651.631L21.7875 532.977L122.575 546.17L223.363 612.08L324.15 796.659L424.938 651.631L525.725 546.17L626.513 453.873L727.3 796.659L828.088 743.928L928.875 374.77L1029.66 612.08L1130.45 598.901L1231.24 625.273L1332.03 678.004L1432.81 757.107L1533.6 467.067L1634.4 559.349L1735.19 598.901L1835.97 546.17L1936.76 387.964L2037.55 506.619L2138.34 546.17L2239.12 809.838L2339.91 757.107L2440.7 467.067L2541.49 783.48L2642.28 493.425L2743.06 546.17L2843.85 414.322L2944.64 770.286L3045.43 691.183L3146.21 612.08L3247 493.425" fill="url(#paint5_radial_60_39)"/>
<path d="M-79 651.631L21.7875 532.977L122.575 546.17L223.363 612.08L324.15 796.659L424.938 651.631L525.725 546.17L626.513 453.873L727.3 796.659L828.088 743.928L928.875 374.77L1029.66 612.08L1130.45 598.901L1231.24 625.273L1332.03 678.004L1432.81 757.107L1533.6 467.067L1634.4 559.349L1735.19 598.901L1835.97 546.17L1936.76 387.964L2037.55 506.619L2138.34 546.17L2239.12 809.838L2339.91 757.107L2440.7 467.067L2541.49 783.48L2642.28 493.425L2743.06 546.17L2843.85 414.322L2944.64 770.286L3045.43 691.183L3146.21 612.08L3247 493.425" fill="#D8C3C3" fill-opacity="0.2"/>
<path d="M-79 651.631L21.7875 532.977L122.575 546.17L223.363 612.08L324.15 796.659L424.938 651.631L525.725 546.17L626.513 453.873L727.3 796.659L828.088 743.928L928.875 374.77L1029.66 612.08L1130.45 598.901L1231.24 625.273L1332.03 678.004L1432.81 757.107L1533.6 467.067L1634.4 559.349L1735.19 598.901L1835.97 546.17L1936.76 387.964L2037.55 506.619L2138.34 546.17L2239.12 809.838L2339.91 757.107L2440.7 467.067L2541.49 783.48L2642.28 493.425L2743.06 546.17L2843.85 414.322L2944.64 770.286L3045.43 691.183L3146.21 612.08L3247 493.425" stroke="#CDC1DD" stroke-width="2"/>
<path d="M-79 203.392L21.7875 638.46L122.575 269.317L223.363 361.599L324.15 427.523L424.938 348.42L525.725 532.984L626.513 453.881L727.3 493.433L828.088 625.281L928.875 295.675L1029.66 308.868L1130.45 374.778L1231.24 282.495L1332.03 361.599L1432.81 467.074L1533.6 387.971L1634.4 282.495L1735.19 177.02L1835.97 559.357L1936.76 467.074L2037.55 387.971L2138.34 427.523L2239.12 295.675L2339.91 572.536L2440.7 625.281L2541.49 598.908L2642.28 177.02L2743.06 348.42L2843.85 216.571L2944.64 348.42L3045.43 282.495L3146.21 625.281L3247 348.42V32.0068H3146.21H3045.43H2944.64H2843.85H2743.06H2642.28H2541.49H2440.7H2339.91H2239.12H2138.34H2037.55H1936.76H1835.97H1735.19H1634.4H1533.6H1432.81H1332.03H1231.24H1130.45H1029.66H928.875H828.088H727.3H626.513H525.725H424.938H324.15H223.363H122.575H21.7875H-79V203.392Z" fill="url(#paint6_radial_60_39)"/>
<path d="M-79 203.392L21.7875 638.46L122.575 269.317L223.363 361.599L324.15 427.523L424.938 348.42L525.725 532.984L626.513 453.881L727.3 493.433L828.088 625.281L928.875 295.675L1029.66 308.868L1130.45 374.778L1231.24 282.495L1332.03 361.599L1432.81 467.074L1533.6 387.971L1634.4 282.495L1735.19 177.02L1835.97 559.357L1936.76 467.074L2037.55 387.971L2138.34 427.523L2239.12 295.675L2339.91 572.536L2440.7 625.281L2541.49 598.908L2642.28 177.02L2743.06 348.42L2843.85 216.571L2944.64 348.42L3045.43 282.495L3146.21 625.281L3247 348.42V32.0068H3146.21H3045.43H2944.64H2843.85H2743.06H2642.28H2541.49H2440.7H2339.91H2239.12H2138.34H2037.55H1936.76H1835.97H1735.19H1634.4H1533.6H1432.81H1332.03H1231.24H1130.45H1029.66H928.875H828.088H727.3H626.513H525.725H424.938H324.15H223.363H122.575H21.7875H-79V203.392Z" fill="#D8C3C3" fill-opacity="0.2"/>
<path d="M-79 203.392L21.7875 638.46L122.575 269.316L223.363 361.599L324.15 427.523L424.938 348.42L525.725 532.984L626.513 453.881L727.3 493.433L828.088 625.281L928.875 295.675L1029.66 308.868L1130.45 374.778L1231.24 282.495L1332.03 361.599L1432.81 467.074L1533.6 387.971L1634.4 282.495L1735.19 177.02L1835.97 559.357L1936.76 467.074L2037.55 387.971L2138.34 427.523L2239.12 295.675L2339.91 572.536L2440.7 625.281L2541.49 598.908L2642.28 177.02L2743.06 348.42L2843.85 216.571L2944.64 348.42L3045.43 282.495L3146.21 625.281L3247 348.42" fill="url(#paint7_radial_60_39)"/>
<path d="M-79 203.392L21.7875 638.46L122.575 269.316L223.363 361.599L324.15 427.523L424.938 348.42L525.725 532.984L626.513 453.881L727.3 493.433L828.088 625.281L928.875 295.675L1029.66 308.868L1130.45 374.778L1231.24 282.495L1332.03 361.599L1432.81 467.074L1533.6 387.971L1634.4 282.495L1735.19 177.02L1835.97 559.357L1936.76 467.074L2037.55 387.971L2138.34 427.523L2239.12 295.675L2339.91 572.536L2440.7 625.281L2541.49 598.908L2642.28 177.02L2743.06 348.42L2843.85 216.571L2944.64 348.42L3045.43 282.495L3146.21 625.281L3247 348.42" fill="#D8C3C3" fill-opacity="0.2"/>
<path d="M-79 203.392L21.7875 638.46L122.575 269.316L223.363 361.599L324.15 427.523L424.938 348.42L525.725 532.984L626.513 453.881L727.3 493.433L828.088 625.281L928.875 295.675L1029.66 308.868L1130.45 374.778L1231.24 282.495L1332.03 361.599L1432.81 467.074L1533.6 387.971L1634.4 282.495L1735.19 177.02L1835.97 559.357L1936.76 467.074L2037.55 387.971L2138.34 427.523L2239.12 295.675L2339.91 572.536L2440.7 625.281L2541.49 598.908L2642.28 177.02L2743.06 348.42L2843.85 216.571L2944.64 348.42L3045.43 282.495L3146.21 625.281L3247 348.42" stroke="#CDC1DD" stroke-width="2"/>
</g>
<defs>
<filter id="filter0_f_60_39" x="-879.974" y="-768.001" width="4927.94" height="2749.09" filterUnits="userSpaceOnUse" color-interpolation-filters="sRGB">
<feFlood flood-opacity="0" result="BackgroundImageFix"/>
<feBlend mode="normal" in="SourceGraphic" in2="BackgroundImageFix" result="shape"/>
<feGaussianBlur stdDeviation="400" result="effect1_foregroundBlur_60_39"/>
</filter>
<radialGradient id="paint0_radial_60_39" cx="0" cy="0" r="1" gradientUnits="userSpaceOnUse" gradientTransform="translate(1548 136.002) rotate(42.0317) scale(1529.4 491.627)">
<stop offset="0.171488" stop-color="#FB0599" stop-opacity="0.645161"/>
<stop offset="0.857565" stop-color="#EB1DEF" stop-opacity="0.6"/>
</radialGradient>
<radialGradient id="paint1_radial_60_39" cx="0" cy="0" r="1" gradientUnits="userSpaceOnUse" gradientTransform="translate(1548 771.382) rotate(19.4064) scale(1204.43 243.975)">
<stop offset="0.171488" stop-color="#FB0599" stop-opacity="0.645161"/>
<stop offset="0.857565" stop-color="#EB1DEF" stop-opacity="0.6"/>
</radialGradient>
<radialGradient id="paint2_radial_60_39" cx="0" cy="0" r="1" gradientUnits="userSpaceOnUse" gradientTransform="translate(1548 120.46) rotate(37.4776) scale(1431.47 446.77)">
<stop offset="0.171488" stop-color="#FB0599" stop-opacity="0.645161"/>
<stop offset="0.857565" stop-color="#EB1DEF" stop-opacity="0.6"/>
</radialGradient>
<radialGradient id="paint3_radial_60_39" cx="0" cy="0" r="1" gradientUnits="userSpaceOnUse" gradientTransform="translate(1548 611.979) rotate(18.8762) scale(1200.57 237.556)">
<stop offset="0.171488" stop-color="#FB0599" stop-opacity="0.645161"/>
<stop offset="0.857565" stop-color="#EB1DEF" stop-opacity="0.6"/>
</radialGradient>
<radialGradient id="paint4_radial_60_39" cx="0" cy="0" r="1" gradientUnits="userSpaceOnUse" gradientTransform="translate(1548 102.527) rotate(31.4371) scale(1331.44 382.969)">
<stop offset="0.171488" stop-color="#FB0599" stop-opacity="0.645161"/>
<stop offset="0.857565" stop-color="#EB1DEF" stop-opacity="0.6"/>
</radialGradient>
<radialGradient id="paint5_radial_60_39" cx="0" cy="0" r="1" gradientUnits="userSpaceOnUse" gradientTransform="translate(1548 414.218) rotate(18.8762) scale(1200.57 237.556)">
<stop offset="0.171488" stop-color="#FB0599" stop-opacity="0.645161"/>
<stop offset="0.857565" stop-color="#EB1DEF" stop-opacity="0.6"/>
</radialGradient>
<radialGradient id="paint6_radial_60_39" cx="0" cy="0" r="1" gradientUnits="userSpaceOnUse" gradientTransform="translate(1548 86.9945) rotate(25.4825) scale(1258.42 315.911)">
<stop offset="0.171488" stop-color="#FB0599" stop-opacity="0.645161"/>
<stop offset="0.857565" stop-color="#EB1DEF" stop-opacity="0.6"/>
</radialGradient>
<radialGradient id="paint7_radial_60_39" cx="0" cy="0" r="1" gradientUnits="userSpaceOnUse" gradientTransform="translate(1548 218.859) rotate(19.9326) scale(1208.39 250.325)">
<stop offset="0.171488" stop-color="#FB0599" stop-opacity="0.645161"/>
<stop offset="0.857565" stop-color="#EB1DEF" stop-opacity="0.6"/>
</radialGradient>
</defs>
</svg>
