<svg width="1200" height="800" viewBox="0 0 1200 800" fill="none" xmlns="http://www.w3.org/2000/svg">
<mask id="mask0_201_1087" style="mask-type:luminance" maskUnits="userSpaceOnUse" x="0" y="0" width="1200" height="800">
<path d="M1200 0H0V800H1200V0Z" fill="white"/>
</mask>
<g mask="url(#mask0_201_1087)">
<path d="M1200 0H0V800H1200V0Z" fill="#070707"/>
</g>
<mask id="mask1_201_1087" style="mask-type:luminance" maskUnits="userSpaceOnUse" x="0" y="0" width="1200" height="800">
<path d="M1200 0H0V800H1200V0Z" fill="white"/>
</mask>
<g mask="url(#mask1_201_1087)">
<path d="M-228.5 432.9C-168.8 385.4 -104.8 342.4 -34.9 323.7C35 304.9 111.9 312.9 168.1 360.5C235.1 417.2 266.7 522.9 342.9 562C392.3 587.3 450 579 504.9 574.7C559.8 570.4 619.8 572.6 660.3 613.4C733.1 686.4 707 844.5 785.9 908.9C837.9 951.3 910.3 931.9 974.9 936.9C1056.6 943.2 1133.3 993.9 1178.1 1071.2C1222.9 1148.5 1235 1250.9 1210.1 1342.5" stroke="#20272B" stroke-miterlimit="10"/>
<path d="M-221.2 421.1C-161.7 374.3 -97.7999 332.5 -28.2 314.5C13.8 303.6 58.3 302.3 99.3 313.3C126.1 320.5 151.3 333 173.5 351.4C240.5 407.2 273.1 510.7 347.6 551.1C374.1 565.4 402.6 570.6 432.3 571.6C457.4 572.5 483.2 570.4 508.6 568.8C544.2 566.6 582.1 566.5 615.5 576.9C633.9 582.7 651 591.6 665.8 605.2C694.7 631.7 709.4 670.1 721.3 711.3C738.5 770.5 750.2 835.3 787.9 877.4C791.9 881.9 796.3 886.1 801 890.1C852.7 933.4 921.9 918.2 982.7 926C1042.4 933.7 1098.3 967.1 1140.8 1018.6C1153 1033.5 1164.2 1049.9 1173.9 1067.6C1191.4 1099.5 1204.3 1135.2 1212.2 1172.3C1224 1227.5 1225 1285.6 1213.6 1339" stroke="#20272B" stroke-miterlimit="10"/>
<path d="M-213.8 409.3C-154.5 363.3 -90.6001 322.6 -21.4001 305.3C20.3999 294.8 64.5 293.8 105.3 304.8C131.9 312 157 324.3 179.1 342.5C246 397.5 279.7 498.7 352.5 540.3C378.7 555.2 406.5 561.7 436 563.7C461 565.5 486.9 564.1 512.5 562.9C548.4 561.2 586.6 561.1 620.4 570.8C639 576.1 656.4 584.5 671.5 597.2C701.1 622.1 717.3 658.1 730.7 697.2C750.2 753.4 764.9 816 803.1 858.6C807.2 863.2 811.5 867.5 816.2 871.5C867.5 915.7 933.5 904.6 990.7 915.3C1046.6 925.8 1098.3 960.9 1138.2 1013.9C1149.8 1029.2 1160.4 1046.1 1169.8 1064.1C1186.7 1096.7 1199.7 1133 1208.4 1170.3C1221.4 1225.9 1225 1283.6 1217.1 1335.6" stroke="#20272B" stroke-miterlimit="10"/>
<path d="M-206.5 397.5C-147.4 352.2 -83.6 312.7 -14.7 296.1C26.8 286.1 70.6 285.3 111.1 296.3C137.5 303.5 162.5 315.7 184.5 333.5C251.3 387.6 286.1 486.6 357.2 529.4C383.1 545 410.3 552.7 439.6 555.8C464.4 558.5 490.4 557.8 516.2 557C552.3 555.9 590.9 555.7 625.1 564.6C644 569.5 661.5 577.3 677 589.1C707.4 612.3 724.9 646 739.9 683C761.7 736.2 779.4 796.5 818.2 839.7C822.3 844.3 826.7 848.7 831.3 852.8C882.3 897.9 945.1 891 998.5 904.5C1050.7 917.8 1098 954.7 1135.5 1009.1C1146.4 1024.9 1156.5 1042.2 1165.6 1060.6C1182 1093.9 1195.1 1130.8 1204.6 1168.3C1218.8 1224.3 1225.1 1281.7 1220.6 1332.2" stroke="#20272B" stroke-miterlimit="10"/>
<path d="M-199.1 385.8C-140.2 341.3 -76.5001 302.8 -7.9001 287.1C33.3999 277.6 76.7999 277.1 117 288C143.2 295.2 168.1 307.2 190 324.8C256.8 378.1 292.6 474.8 362 518.8C387.6 535 414.2 543.9 443.2 548.1C467.9 551.7 494 551.7 520 551.3C556.4 550.7 595.4 550.5 629.9 558.7C649 563.2 666.7 570.4 682.6 581.3C713.8 602.9 732.6 634.2 749.3 669.1C773.3 719.4 794.1 777.3 833.4 821.1C837.6 825.7 841.9 830.2 846.6 834.4C897.3 880.4 957 877.7 1006.5 894C1055.1 910 1097.9 948.8 1133 1004.7C1143.2 1020.9 1152.7 1038.7 1161.5 1057.5C1177.3 1091.6 1190.6 1129 1200.8 1166.7C1216.2 1223.1 1225.2 1280.1 1224.1 1329.2" stroke="#20272B" stroke-miterlimit="10"/>
<path d="M-191.8 374C-133 330.2 -69.5 292.9 -1.20004 277.9C39.8 268.8 82.9 268.6 122.8 279.5C148.8 286.6 173.5 298.5 195.4 315.8C262.1 368.2 299 462.8 366.7 507.9C392 524.7 417.9 534.9 446.8 540.2C471.4 544.7 497.6 545.4 523.8 545.5C560.4 545.5 599.8 545.2 634.7 552.6C654 556.7 672 563.2 688.2 573.3C720.2 593.2 740.4 622.2 758.6 655C784.9 702.3 808.7 758 848.6 802.4C852.8 807.1 857.2 811.6 861.8 815.9C912.2 862.7 968.7 864.2 1014.5 883.4C1059.4 902.3 1097.8 942.8 1130.4 1000.1C1139.9 1016.8 1148.9 1035 1157.4 1054.1C1172.7 1088.9 1186.1 1126.8 1197.1 1164.8C1213.7 1221.6 1225.3 1278.2 1227.8 1325.9" stroke="#20272B" stroke-miterlimit="10"/>
<path d="M-184.5 362.2C-125.9 319.2 -62.4 283 5.5 268.7C46.3 260.1 89 260.1 128.6 271C154.5 278.1 179 289.9 200.8 306.8C267.4 358.4 305.4 450.8 371.5 497C396.5 514.5 421.8 525.9 450.4 532.3C474.8 537.7 501.1 539.1 527.6 539.6C564.5 540.1 604.2 539.8 639.5 546.4C659 550 677.3 556 693.8 565.2C726.6 583.5 748.1 610.1 767.9 640.8C796.4 685.1 823.3 738.5 863.7 783.5C868 788.2 872.4 792.8 876.9 797.2C927 844.9 980.4 850.6 1022.3 872.6C1063.6 894.3 1097.5 936.6 1127.7 995.3C1136.5 1012.5 1145 1031.1 1153.2 1050.6C1167.9 1086.2 1181.4 1124.6 1193.2 1162.8C1211 1220 1225.3 1276.2 1231.2 1322.5" stroke="#20272B" stroke-miterlimit="10"/>
<path d="M-177.1 350.4C-118.7 308.2 -55.3001 273.1 12.2999 259.5C52.7999 251.3 95.1999 251.6 134.5 262.5C160.2 269.6 184.6 281.2 206.3 297.9C272.9 348.6 311.8 438.9 376.3 486.3C401 504.5 425.6 517.1 454.1 524.5C478.4 530.8 504.8 533 531.4 533.8C568.5 534.9 608.6 534.6 644.3 540.4C664 543.6 682.5 549 699.4 557.3C733 573.9 755.9 598.2 777.2 626.9C808 668.3 837.9 719.4 878.8 764.9C883.1 769.7 887.5 774.3 892.1 778.8C941.9 827.4 992.2 837.4 1030.3 862.1C1068 886.7 1097.3 930.7 1125.1 990.8C1133.2 1008.4 1141.3 1027.4 1149.1 1047.3C1163.4 1083.6 1176.9 1122.6 1189.4 1161C1208.4 1218.6 1225.3 1274.4 1234.7 1319.3" stroke="#20272B" stroke-miterlimit="10"/>
<path d="M-169.8 338.6C-111.6 297.1 -48.3 263.1 19 250.4C59.2 242.7 101.3 243.3 140.4 254.1C165.9 261.2 190.1 272.7 211.8 289C278.3 338.8 318.3 427.1 381.1 475.5C405.5 494.3 429.5 508.2 457.7 516.7C481.9 523.9 508.3 526.8 535.2 528C572.6 529.6 613 529.3 649.1 534.3C669 537.1 687.8 541.8 705 549.3C739.4 564.3 763.6 586.2 786.5 612.8C819.6 651.2 852.5 700 894 746.1C898.3 750.9 902.8 755.6 907.3 760.2C956.8 809.7 1004 823.9 1038.2 851.4C1072.4 878.9 1097.1 924.6 1122.5 986.2C1130 1004.3 1137.5 1023.7 1145 1044C1158.7 1081 1172.4 1120.6 1185.7 1159.2C1205.9 1217.2 1225.5 1272.6 1238.3 1316.1" stroke="#20272B" stroke-miterlimit="10"/>
<path d="M-162.5 326.8C-104.5 286.1 -41.3 253.2 25.7 241.2C65.7 233.9 107.4 234.8 146.2 245.6C171.5 252.7 195.6 264 217.2 280C283.7 329 324.7 415.2 385.8 464.6C409.9 484.1 433.2 499.2 461.3 508.7C485.3 516.9 511.9 520.4 539 522C576.6 524.2 617.5 523.8 653.9 528C674 530.3 693 534.5 710.5 541.1C745.7 554.4 771.3 574 795.8 598.5C831.2 633.9 867.1 680.4 909.1 727.1C913.5 732 917.9 736.7 922.4 741.4C971.5 791.8 1015.7 810.4 1046 840.5C1076.6 870.9 1096.8 918.3 1119.7 981.3C1126.5 999.9 1133.5 1019.7 1140.7 1040.3C1153.9 1078 1167.6 1118.2 1181.7 1157.1C1203.1 1215.5 1225.3 1270.5 1241.6 1312.6" stroke="#20272B" stroke-miterlimit="10"/>
<path d="M-155.1 315.1C-97.3001 275.1 -34.1001 243.4 32.4999 232.1C72.1999 225.3 113.5 226.4 152.1 237.2C177.2 244.3 201.2 255.5 222.8 271.2C289.2 319.3 331.2 403.5 390.7 453.9C414.5 474.1 437.2 490.4 465 501C488.9 510.1 515.5 514.3 542.8 516.4C580.7 519.1 621.9 518.7 658.7 522.2C679.1 524.1 698.3 527.6 716.1 533.4C752.2 545 779.1 562.3 805.1 584.7C842.8 617.2 881.7 661.4 924.3 708.6C928.7 713.5 933.2 718.3 937.6 723.1C986.4 774.4 1027.5 797.4 1054 830.1C1081 863.6 1096.7 912.5 1117.2 976.9C1123.3 995.9 1129.8 1016.2 1136.6 1037.2C1149.2 1075.7 1163.1 1116.4 1178 1155.5C1200.6 1214.3 1225.5 1268.9 1245.3 1309.6" stroke="#20272B" stroke-miterlimit="10"/>
<path d="M-147.8 303.3C-90.2001 264.1 -27.1001 233.4 39.2 222.9C78.7 216.5 119.6 217.9 157.9 228.7C182.9 235.8 206.7 246.8 228.2 262.2C294.5 309.5 337.5 391.6 395.4 443C418.9 463.9 440.9 481.5 468.5 493.1C492.3 503.1 519 508 546.5 510.5C584.6 513.8 626.2 513.3 663.4 516C684 517.5 703.5 520.4 721.6 525.3C758.5 535.2 786.8 550.2 814.3 570.5C854.3 600 896.2 641.9 939.3 689.7C943.8 694.7 948.2 699.6 952.7 704.4C1001.2 756.6 1039.2 784 1061.8 819.3C1085.2 855.8 1096.3 906.4 1114.4 972.1C1119.8 991.6 1125.8 1012.3 1132.3 1033.7C1144.4 1072.9 1158.4 1114.2 1174 1153.5C1197.7 1212.7 1225.3 1266.9 1248.6 1306.2" stroke="#20272B" stroke-miterlimit="10"/>
<path d="M-140.4 291.5C-82.8999 253 -19.9999 223.5 46.0001 213.8C85.2001 207.9 125.8 209.5 163.8 220.3C188.6 227.3 212.2 238.3 233.7 253.4C300 299.8 343.9 379.9 400.2 432.4C423.4 454 444.8 472.8 472.2 485.4C495.8 496.3 522.6 501.9 550.4 504.8C588.8 508.6 630.7 508.1 668.3 510.1C689.1 511.2 708.9 513.4 727.3 517.5C765 525.7 794.6 538.4 823.7 556.6C866 583.1 910.9 622.8 954.6 671.1C959.1 676.1 963.6 681.1 968 686C1016.2 739.1 1051 771 1069.8 808.8C1089.5 848.4 1096.2 900.5 1111.9 967.7C1116.6 987.6 1122 1008.8 1128.3 1030.5C1139.8 1070.5 1154 1112.2 1170.3 1151.8C1195.2 1211.4 1225.5 1265.2 1252.2 1303.1" stroke="#20272B" stroke-miterlimit="10"/>
<path d="M-133.1 279.7C-75.8001 242 -13.0001 213.6 52.6999 204.6C91.6999 199.1 131.9 201.1 169.6 211.8C194.2 218.8 217.7 229.6 239.1 244.4C305.3 290 350.2 368.1 404.9 421.5C427.8 443.8 448.6 463.8 475.7 477.5C499.2 489.3 526.1 495.7 554.1 498.9C592.8 503.3 635 502.7 673 503.9C694 504.5 714 506.2 732.8 509.4C771.4 515.9 802.3 526.3 832.9 542.5C877.5 566.1 925.4 603.4 969.6 652.3C974.2 657.3 978.6 662.4 983 667.4C1030.9 721.3 1062.5 757.7 1077.6 798.1C1093.6 840.8 1095.8 894.4 1109.2 963C1113.2 983.4 1118.1 1005 1124.1 1027.1C1135.1 1067.8 1149.3 1110.1 1166.5 1149.9C1192.6 1209.9 1225.5 1263.3 1255.7 1299.8" stroke="#20272B" stroke-miterlimit="10"/>
<path d="M-125.8 267.9C-68.7001 230.9 -5.90004 203.7 59.4 195.4C98.1 190.4 138 192.6 175.5 203.3C199.9 210.3 223.3 220.9 244.6 235.4C310.8 280.1 356.6 356.3 409.7 410.6C432.2 433.6 452.4 454.8 479.4 469.5C502.8 482.3 529.7 489.3 557.9 492.9C596.8 497.8 639.4 497.2 677.8 497.6C699 497.8 719.3 498.8 738.4 501.2C777.8 506 810.1 514.1 842.3 528.2C889.2 548.8 940.1 583.8 984.9 633.3C989.5 638.4 994 643.5 998.4 648.6C1046 703.4 1074.3 744.3 1085.7 787.2C1097.9 833.1 1095.7 888.1 1106.7 958.1C1110 979 1114.4 1001 1120.1 1023.4C1130.5 1064.8 1144.9 1107.7 1162.8 1147.7C1190.1 1208.1 1225.7 1261.1 1259.3 1296.2" stroke="#20272B" stroke-miterlimit="10"/>
<path d="M-118.4 256.1C-61.4999 219.9 1.2001 193.7 66.2001 186.3C104.7 181.8 144.2 184.2 181.4 194.9C205.6 201.9 228.8 212.4 250.1 226.6C316.2 270.5 362.9 344.7 414.5 399.9C436.7 423.7 456.3 446 483 461.8C506.2 475.5 533.3 483.2 561.7 487.2C600.9 492.7 643.9 492 682.6 491.7C704 491.5 724.6 491.8 744 493.3C784.3 496.4 817.9 502.1 851.6 514.2C900.8 531.8 954.7 564.6 1000 614.6C1004.6 619.7 1009.1 624.9 1013.5 630.1C1060.8 685.8 1085.8 731.2 1093.6 776.6C1102 825.6 1095.5 882.2 1104.1 953.5C1106.7 974.9 1110.6 997.3 1116 1020.1C1125.8 1062.3 1140.4 1105.7 1159.1 1145.9C1187.6 1206.7 1225.9 1259.3 1263 1293" stroke="#20272B" stroke-miterlimit="10"/>
<path d="M-111.1 244.4C-54.4001 209 8.19992 183.9 72.8999 177.2C111.1 173.1 150.3 175.8 187.2 186.5C211.3 193.5 234.3 203.8 255.5 217.7C321.5 260.7 369.2 333 419.2 389.1C441 413.6 460 437.1 486.6 453.9C509.7 468.5 536.8 476.9 565.5 481.4C604.9 487.4 648.3 486.8 687.4 485.6C709 485 729.9 484.7 749.6 485.3C790.7 486.7 825.6 490.1 860.9 500.1C912.5 514.7 969.3 545.2 1015.1 595.8C1019.8 601 1024.3 606.2 1028.6 611.5C1075.5 668.1 1097.2 717.9 1101.4 765.9C1106 817.9 1095.1 876.1 1101.3 948.9C1103.2 970.7 1106.6 993.6 1111.6 1016.8C1120.8 1059.7 1135.5 1103.7 1155 1144.1C1184.7 1205.3 1225.6 1257.5 1266.2 1289.9" stroke="#20272B" stroke-miterlimit="10"/>
<path d="M-103.8 232.6C-47.3 197.9 15.2999 174 79.5999 168C117.6 164.4 156.4 167.4 193 178C216.9 185 239.8 195.2 260.9 208.8C326.9 250.9 375.4 321.4 423.9 378.4C445.4 403.6 463.8 428.4 490.1 446.2C513.1 461.7 540.3 470.8 569.1 475.7C608.8 482.3 652.5 481.6 692 479.7C713.9 478.6 734.9 478.1 755 477.5C796.9 476.2 833.2 478.3 870 486.2C923.9 497.8 983.7 526 1030.1 577.2C1034.8 582.4 1039.3 587.7 1043.7 593.1C1090.3 650.6 1108.6 704.9 1109.2 755.4C1109.9 810.5 1094.7 870.2 1098.6 944.4C1099.8 966.7 1102.7 990 1107.4 1013.5C1116.1 1057.2 1130.9 1101.7 1151.1 1142.3C1182 1203.9 1225.6 1255.7 1269.6 1286.7" stroke="#20272B" stroke-miterlimit="10"/>
<path d="M-96.3999 220.8C-40.0999 186.9 22.4001 164.1 86.5001 158.8C124.2 155.6 162.7 158.9 199 169.5C222.7 176.4 245.5 186.5 266.5 199.8C332.4 241.1 381.8 309.6 428.8 367.5C449.9 393.5 467.7 419.4 493.9 438.3C516.7 454.8 544 464.5 573.1 469.8C613 476.9 657.1 476.2 697 473.5C719.1 472 740.4 470.4 760.8 469.4C803.6 467.3 841.2 466.2 879.6 472C935.8 480.6 998.6 506.6 1045.5 558.3C1050.3 563.6 1054.8 568.9 1059.1 574.4C1105.4 632.8 1120.3 691.4 1117.4 744.6C1114.2 802.7 1094.7 864 1096.2 939.6C1096.7 962.3 1099.1 986 1103.5 1010C1111.6 1054.4 1126.6 1099.5 1147.6 1140.3C1179.7 1202.3 1225.9 1253.8 1273.4 1283.3" stroke="#20272B" stroke-miterlimit="10"/>
<path d="M-89.1001 209C-32.9001 175.8 29.3999 154.1 93.1999 149.7C130.7 147 168.8 150.5 204.8 161.1C228.3 168 250.9 178 271.9 190.9C337.7 231.3 387.9 297.9 433.5 356.7C454.2 383.4 471.4 410.5 497.4 430.4C520.1 447.8 547.5 458.3 576.8 463.9C617 471.6 661.4 470.8 701.7 467.3C724 465.4 745.6 463.1 766.3 461.3C809.9 457.5 848.9 454 888.8 457.8C947.3 463.4 1013.1 487.1 1060.6 539.4C1065.4 544.7 1070 550.1 1074.2 555.7C1120.2 615 1131.7 678 1125.2 733.8C1118.1 794.9 1094.3 857.8 1093.5 934.9C1093.2 958.1 1095.2 982.2 1099.3 1006.5C1106.8 1051.6 1122 1097.2 1143.7 1138.3C1177 1200.7 1225.9 1251.8 1276.8 1279.9" stroke="#20272B" stroke-miterlimit="10"/>
<path d="M-81.7 197.2C-25.7 164.8 36.5 144.2 100 140.5C137.2 138.2 175 142 210.8 152.6C234.1 159.5 256.6 169.3 277.5 182C343.2 221.6 394.2 286.3 438.3 345.9C458.6 373.4 475.3 401.6 501.1 422.6C523.6 440.9 551.1 452.1 580.7 458.1C621.1 466.3 666 465.5 706.6 461.3C729.1 459 750.9 456.1 772 453.4C816.4 447.8 856.7 442.1 898.2 443.9C959 446.5 1027.8 468 1075.8 520.8C1080.7 526.2 1085.2 531.7 1089.5 537.3C1135.2 597.5 1143.3 664.9 1133.3 723.3C1122.3 787.4 1094.2 852 1091.1 930.4C1090.1 954.1 1091.5 978.6 1095.4 1003.3C1102.4 1049.2 1117.6 1095.3 1140.2 1136.6C1174.7 1199.4 1226.2 1250.1 1280.7 1276.8" stroke="#20272B" stroke-miterlimit="10"/>
<path d="M-74.3999 185.4C-18.5999 153.7 43.6001 134.3 106.7 131.3C143.7 129.5 181.1 133.5 216.6 144.1C239.8 151 262.1 160.6 283 173C348.7 211.7 400.5 274.6 443.2 335C463.1 363.2 479.2 392.6 504.8 414.6C527.2 433.9 554.8 445.7 584.5 452.1C625.2 460.9 670.4 460 711.4 455C734.1 452.2 756.2 448.7 777.6 445.2C822.9 437.9 864.5 429.8 907.5 429.6C970.6 429.1 1042.4 448.4 1091 501.8C1095.9 507.2 1100.5 512.8 1104.7 518.5C1150.1 579.6 1154.8 651.3 1141.2 712.4C1126.2 779.5 1093.9 845.7 1088.4 925.5C1086.7 949.6 1087.6 974.6 1091.2 999.7C1097.6 1046.3 1113 1093 1136.3 1134.5C1172 1197.7 1226.2 1248 1284.1 1273.3" stroke="#20272B" stroke-miterlimit="10"/>
<path d="M-67.1001 173.7C-11.5001 142.8 50.5999 124.4 113.4 122.2C150.1 120.8 187.1 125.2 222.4 135.7C245.4 142.6 267.5 152.1 288.4 164.1C354.1 202 406.6 262.9 447.9 324.2C467.4 353.2 482.9 383.8 508.4 406.8C530.6 427 558.3 439.5 588.3 446.4C629.2 455.7 674.8 454.8 716.2 449C739.1 445.8 761.5 441.6 783.2 437.3C829.3 428.2 872.3 417.9 916.8 415.6C982.2 412.1 1057 429.1 1106.1 483.1C1111.1 488.5 1115.6 494.2 1119.8 500C1164.9 561.9 1166.2 638 1149 701.8C1130.1 771.8 1093.5 839.7 1085.7 920.9C1083.3 945.5 1083.7 970.9 1086.9 996.3C1092.8 1043.7 1108.3 1090.9 1132.3 1132.6C1169.2 1196.2 1226 1246.1 1287.4 1270" stroke="#20272B" stroke-miterlimit="10"/>
<path d="M-59.7 161.9C-4.29995 131.7 57.7 114.5 120.2 113.1C156.7 112.2 193.3 116.8 228.3 127.3C251.1 134.2 273.1 143.5 293.9 155.3C359.5 192.3 412.8 251.4 452.7 313.6C471.8 343.4 486.8 375.1 512 399.2C534.1 420.4 561.9 433.5 592.1 440.8C633.3 450.7 679.2 449.7 721 443.2C744.1 439.6 766.7 434.7 788.8 429.6C835.7 418.8 880.1 406.1 926.2 401.8C993.9 395.3 1071.7 410.1 1121.3 464.6C1126.3 470.1 1130.9 475.8 1135 481.7C1179.7 544.5 1177.7 624.9 1157 691.4C1134.2 764.3 1093.2 833.9 1083.1 916.6C1080 941.7 1079.9 967.5 1082.8 993.3C1088.1 1041.4 1103.7 1089.2 1128.6 1131.1C1166.7 1195.1 1226.2 1244.6 1291 1267.1" stroke="#20272B" stroke-miterlimit="10"/>
<path d="M-52.3999 150.1C2.8001 120.7 64.7001 104.6 126.9 103.9C163.1 103.5 199.4 108.3 234.1 118.8C256.7 125.6 278.6 134.9 299.3 146.3C364.8 182.4 418.9 239.7 457.4 302.7C476.1 333.2 490.5 366.1 515.6 391.2C537.5 413.3 565.4 427.1 595.8 434.8C637.2 445.2 683.5 444.2 725.7 436.9C749.1 432.8 771.9 427.3 794.3 421.4C842 408.8 887.7 393.9 935.4 387.5C1005.4 378 1086.2 390.5 1136.4 445.6C1141.4 451.1 1146 456.9 1150.2 462.9C1194.6 526.6 1189.3 611.3 1164.9 680.5C1138.2 756.4 1092.9 827.6 1080.5 911.7C1076.7 937.2 1076.1 963.5 1078.7 989.6C1083.5 1038.4 1099.2 1086.8 1124.8 1128.9C1164.1 1193.3 1226.2 1242.4 1294.5 1263.5" stroke="#20272B" stroke-miterlimit="10"/>
<path d="M-45.1001 138.3C9.8999 109.6 71.7999 94.7 133.6 94.7C169.6 94.7 205.5 99.8 239.9 110.3C262.3 117.1 284 126.2 304.7 137.4C370.2 172.7 425 228 462.2 291.9C480.4 323.2 494.4 357.2 519.2 383.4C541 406.4 569 421 599.6 429C641.3 440 687.9 439 730.5 430.9C754.1 426.4 777.1 420.2 799.9 413.5C848.4 399.1 895.5 382 944.7 373.5C1017 361 1100.8 371.3 1151.5 426.9C1156.6 432.5 1161.2 438.3 1165.3 444.4C1209.4 509 1200.6 597.9 1172.8 669.9C1142.1 748.6 1092.7 821.6 1077.8 907.1C1073.3 933.1 1072.2 959.8 1074.5 986.3C1078.7 1035.9 1094.6 1084.8 1121 1127.1C1161.5 1191.9 1226.3 1240.6 1298 1260.3" stroke="#20272B" stroke-miterlimit="10"/>
<path d="M-37.7 126.5C49 82.4 152.9 73.4 245.9 101.9C338.9 130.4 419.9 196 467 281.1C484.8 313.2 498.2 348.3 522.9 375.5C574 431.9 660.8 440.1 735.4 424.7C810 409.3 879.5 374.8 954.1 359.3C1028.7 343.8 1115.5 351.8 1166.8 408C1226.5 473.5 1215.3 577.4 1180.8 659.1C1146.3 740.8 1092.5 815.4 1075.3 902.3C1060.3 978.2 1075.6 1059.8 1117.3 1125C1159 1190.2 1226.4 1238.5 1301.7 1256.8" stroke="#20272B" stroke-miterlimit="10"/>
<path d="M-14.6001 121.3C71.4999 78.6 174.2 70.5 265.9 99.5C357.6 128.5 437.5 193.7 483.1 278.4C500.9 311.4 513.3 347.9 537.1 376.1C585.5 433.2 669.5 442.9 741.7 430.3C813.9 417.7 882.1 386.4 956 372.8C1030.8 359 1118 365.4 1170.8 420.2C1231.8 483.8 1223.9 587.1 1190.9 669.3C1157.9 751.5 1102.6 826.5 1083.4 911.2C1066.8 984.4 1080.8 1062.9 1119.4 1126.2C1158.1 1189.4 1221.6 1237 1294.1 1256.1" stroke="#20272B" stroke-miterlimit="10"/>
<path d="M8.5 116.1C93.9 74.7 195.5 67.7 285.9 97.1C376.3 126.5 455.1 191.5 499.3 275.7C517.1 309.7 528.4 347.4 551.5 376.6C597.2 434.3 678.3 445.5 748.2 435.8C818.1 426.1 884.9 397.9 958 386.2C1033 374.2 1120.9 378.9 1174.9 432.2C1237.3 493.8 1232.6 596.6 1201 679.2C1169.4 761.8 1112.8 837.3 1091.5 919.8C1073.3 990.3 1085.9 1065.8 1121.6 1127C1157.3 1188.2 1216.9 1235.2 1286.6 1255" stroke="#20272B" stroke-miterlimit="10"/>
<path d="M31.6001 110.9C116.4 70.8 216.9 64.9 305.9 94.7C394.9 124.5 472.6 189.3 515.4 273C533.2 307.9 543.4 346.9 565.8 377.2C608.8 435.4 687 448.3 754.6 441.4C822.2 434.5 887.6 409.6 960 399.7C1035.3 389.4 1123.6 392.4 1179.1 444.3C1242.9 503.9 1241.3 606.1 1211.2 689.3C1181.1 772.5 1123 848.3 1099.7 928.6C1080 996.3 1091.2 1068.9 1123.9 1128C1156.6 1187.1 1212.3 1233.5 1279.2 1254.1" stroke="#20272B" stroke-miterlimit="10"/>
<path d="M54.7 105.7C138.9 67 238.2 62 326 92.3C413.8 122.6 490.2 187.1 531.6 270.3C549.4 306.1 558.6 346.4 580.2 377.8C620.6 436.4 695.9 451.1 761.1 447C826.3 442.9 890.5 421.2 962.1 413.2C1037.7 404.7 1126.5 406 1183.3 456.4C1248.4 514.1 1250.1 615.7 1221.5 699.3C1192.8 782.9 1133.5 859 1108 937.3C1086.9 1002.2 1096.5 1071.8 1126.2 1128.9C1155.9 1186 1207.7 1231.7 1271.9 1253" stroke="#20272B" stroke-miterlimit="10"/>
<path d="M77.8999 100.5C161.5 63.1 259.6 59.2 346.1 89.9C432.6 120.6 507.8 184.9 547.9 267.6C565.7 304.4 573.8 345.8 594.6 378.3C632.4 437.3 704.7 453.7 767.6 452.5C830.6 451.3 893.3 432.8 964.1 426.6C1040 419.9 1129.2 419.5 1187.4 468.4C1253.8 524.1 1258.8 625.2 1231.6 709.3C1204.4 793.4 1143.7 869.8 1116.1 945.9C1093.6 1008 1101.7 1074.7 1128.4 1129.8C1155.1 1184.8 1203 1229.9 1264.4 1252" stroke="#20272B" stroke-miterlimit="10"/>
<path d="M101 95.3C184 59.3 281 56.4 366.1 87.5C451.2 118.6 525.2 182.8 564 264.9C581.8 302.7 588.8 345.2 608.9 378.9C644.2 438.2 713.4 456.5 774 458.1C834.6 459.7 896.1 444.6 966.1 440.1C1042.3 435.2 1131.9 433.1 1191.6 480.5C1259.3 534.3 1267.6 634.8 1241.8 719.3C1216 803.8 1154.2 880.4 1124.3 954.6C1100.5 1013.8 1107 1077.7 1130.7 1130.7C1154.4 1183.7 1198.4 1228.2 1257 1251" stroke="#20272B" stroke-miterlimit="10"/>
<path d="M124.1 90.1C206.5 55.4 302.3 53.5 386.1 85.1C469.9 116.7 542.6 180.6 580.1 262.2C597.9 300.9 603.9 344.5 623.2 379.4C656 438.9 722.1 459.2 780.4 463.6C838.7 468.1 898.8 456.2 968.1 453.5C1044.6 450.4 1134.6 446.6 1195.7 492.5C1264.7 544.4 1276.3 644.2 1252 729.3C1227.7 814.3 1164.7 891.1 1132.6 963.3C1107.6 1019.7 1112.3 1080.6 1133 1131.6C1153.7 1182.6 1193.8 1226.4 1249.7 1250" stroke="#20272B" stroke-miterlimit="10"/>
<path d="M147.2 84.9C229 51.5 323.6 50.7 406.2 82.7C488.8 114.7 560.1 178.5 596.3 259.4C614.1 299.1 619.1 343.8 637.5 379.9C667.9 439.5 730.9 461.8 786.9 469.1C842.9 476.4 901.8 464.1 970.1 466.9C1046.9 470 1137.3 460.1 1199.8 504.5C1270.1 554.5 1285 653.7 1262.1 739.2C1239.2 824.7 1175.1 901.6 1140.7 971.9C1114.5 1025.4 1117.5 1083.5 1135.2 1132.4C1152.9 1181.3 1189.1 1224.5 1242.2 1248.9" stroke="#20272B" stroke-miterlimit="10"/>
<path d="M170.3 79.7C251.5 47.7 345 47.9 426.2 80.3C507.4 112.7 577.4 176.4 612.5 256.8C630.2 297.5 634.3 343.2 651.9 380.5C680 440.3 739.7 464.6 793.4 474.7C847.1 484.8 904.8 475.7 972.2 480.4C1049.2 485.7 1140.1 473.7 1204.1 516.6C1275.7 564.6 1293.9 663.3 1272.4 749.3C1250.9 835.3 1185.9 912.2 1149 980.7C1121.7 1031.3 1122.8 1086.6 1137.6 1133.5C1152.3 1180.4 1184.6 1222.9 1234.9 1248.1" stroke="#20272B" stroke-miterlimit="10"/>
<path d="M193.4 74.5C273.9 43.8 366.3 45 446.2 77.9C526.1 110.8 594.7 174.3 628.6 254C646.3 295.7 649.5 342.3 666.2 381C692 440.8 748.4 467.2 799.8 480.2C851.1 493.2 907.4 491.5 974.2 493.7C1051.7 496.3 1142.8 487.1 1208.2 528.6C1281 574.7 1302.6 672.8 1282.6 759.3C1262.6 845.8 1196.6 922.8 1157.2 989.4C1128.9 1037.2 1128.1 1089.6 1139.8 1134.4C1151.5 1179.2 1179.9 1221.2 1227.4 1247" stroke="#20272B" stroke-miterlimit="10"/>
<path d="M216.5 69.3C296.4 40 387.6 42.2 466.3 75.5C545 108.8 612.1 172.3 644.8 251.4C662.4 294.1 664.8 341.7 680.6 381.6C704.2 441.5 757.2 470.1 806.2 485.8C855.2 501.6 910.2 503.4 976.1 507.2C1054 511.8 1145.4 500.8 1212.2 540.7C1286.3 584.9 1311.1 682.3 1292.6 769.3C1274.1 856.3 1207.2 933.3 1165.2 998C1136 1042.9 1133.2 1092.4 1141.9 1135.2C1150.6 1178 1175 1219.3 1219.9 1245.9" stroke="#20272B" stroke-miterlimit="10"/>
<path d="M239.7 64.2C319 36.2 409.1 39.5 486.4 73.3C563.7 107.1 629.5 170.3 661.1 248.8C678.7 292.5 680.2 341 695 382.3C716.5 442.1 766.1 472.9 812.8 491.5C859.5 510.1 913.2 515.4 978.3 520.8C1056.5 527.4 1148.3 514.5 1216.6 552.9C1292 595.3 1320.1 692 1303 779.5C1285.9 867 1218.4 944.1 1173.6 1006.9C1143.6 1049 1138.6 1095.6 1144.4 1136.3C1150.2 1177.1 1170.6 1217.7 1212.7 1245.1" stroke="#20272B" stroke-miterlimit="10"/>
<path d="M262.8 59C341.5 32.4 430.4 36.6 506.4 70.9C582.4 105.2 646.7 168.1 677.2 246C694.7 290.7 695.5 340.1 709.3 382.7C728.7 442.5 774.8 475.4 819.2 496.9C863.6 518.4 916 527.1 980.3 534.1C1058.9 542.7 1150.9 527.9 1220.7 564.8C1297.3 605.3 1328.8 701.4 1313.2 789.3C1297.6 877.2 1229.4 954.5 1181.8 1015.4C1151.1 1054.7 1143.9 1098.4 1146.6 1137.1C1149.4 1175.8 1165.9 1215.8 1205.2 1244" stroke="#20272B" stroke-miterlimit="10"/>
<path d="M285.9 53.8C364 28.5 451.7 33.8 526.4 68.5C601.1 103.2 664 166.2 693.3 243.4C710.7 289.1 710.8 339.4 723.6 383.4C741 443.1 783.5 478.3 825.6 502.6C867.7 526.9 918.8 539.2 982.3 547.7C1061.2 558.3 1153.6 541.7 1224.8 577C1302.7 615.6 1337.5 711.1 1323.3 799.5C1309.1 887.9 1240.5 965.3 1189.9 1024.3C1158.5 1060.9 1149 1101.5 1148.8 1138.2C1148.6 1174.9 1161.2 1214.3 1197.7 1243.2" stroke="#20272B" stroke-miterlimit="10"/>
<path d="M309 48.6C386.5 24.6 473.1 30.9 546.5 66.1C619.9 101.3 681.2 164.1 709.5 240.7C726.8 287.4 726.2 338.6 737.9 383.9C753.3 443.6 792.3 481 832 508.1C871.7 535.2 921.6 551.1 984.2 561.1C1063.5 573.8 1156.2 555.2 1228.9 589C1308 625.7 1346.2 720.5 1333.4 809.4C1320.7 898.3 1251.6 976 1198 1032.9C1166 1066.8 1154.2 1104.4 1151 1139C1147.8 1173.6 1156.5 1212.4 1190.3 1242" stroke="#20272B" stroke-miterlimit="10"/>
<path d="M332.1 43.4C409 20.8 494.4 28.1 566.5 63.7C638.6 99.3 698.4 162.1 725.7 238C742.8 285.7 741.7 337.8 752.3 384.5C765.8 444.1 801.1 483.7 838.5 513.7C875.9 543.7 924.4 563.1 986.3 574.6C1065.9 589.4 1158.9 568.9 1233.1 601.1C1313.4 636 1355 730.1 1343.7 819.5C1332.4 908.9 1263.1 986.9 1206.3 1041.6C1173.8 1072.9 1159.5 1107.4 1153.3 1140C1147.1 1172.6 1151.9 1210.7 1182.9 1241.1" stroke="#20272B" stroke-miterlimit="10"/>
<path d="M355.2 38.2C431.4 16.9 515.7 25.3 586.5 61.3C657.3 97.3 715.6 160 741.8 235.3C758.8 284 757.2 337 766.6 385.1C778.3 444.7 809.8 486.5 844.9 519.3C880 552.1 927.2 575.1 988.3 588.1C1068.3 605.1 1161.6 582.6 1237.2 613.2C1318.8 646.2 1363.7 739.7 1353.8 829.5C1343.9 919.3 1274.5 997.9 1214.5 1050.3C1181.6 1079.1 1164.8 1110.3 1155.6 1140.9C1146.4 1171.5 1147.3 1208.9 1175.5 1240.1" stroke="#20272B" stroke-miterlimit="10"/>
<path d="M378.4 33C454 13.1 537.2 22.4 606.6 58.9C676 95.4 732.8 158 758 232.6C774.8 282.4 772.8 336.2 781 385.6C790.8 445.1 818.6 489.1 851.4 524.8C884.2 560.5 930.1 587.1 990.3 601.5C1070.6 620.7 1164.3 596.2 1241.4 625.2C1324.2 656.4 1372.4 749.2 1364 839.5C1355.6 929.8 1286.1 1009 1222.7 1059C1189.4 1085.3 1170.1 1113.3 1157.9 1141.8C1145.7 1170.3 1142.7 1207.2 1168.2 1239.1" stroke="#20272B" stroke-miterlimit="10"/>
<path d="M401.5 27.8C476.5 9.2 558.5 19.6 626.7 56.5C694.9 93.4 750 156 774.2 229.9C790.8 280.7 788.4 335.4 795.3 386.2C803.4 445.7 827.4 491.9 857.8 530.4C888.2 568.9 932.8 599.2 992.3 615C1072.9 636.4 1166.9 609.9 1245.5 637.4C1329.5 666.8 1381.1 758.8 1374.2 849.7C1367.3 940.6 1297.8 1020.5 1230.9 1067.9C1197.2 1091.8 1175.3 1116.5 1160.1 1142.9C1144.9 1169.4 1138 1205.6 1160.7 1238.3" stroke="#20272B" stroke-miterlimit="10"/>
<path d="M424.6 22.6C499 5.39997 579.8 16.8 646.7 54.1C713.6 91.4 767.1 154 790.4 227.1C806.9 278.9 804.2 334.5 809.7 386.6C816 446.1 836.2 494.5 864.3 535.8C892.4 577.1 935.7 611.1 994.4 628.3C1075.2 652 1169.7 623.4 1249.7 649.3C1335 676.9 1389.9 768.2 1384.4 859.5C1378.9 950.8 1309.5 1031.8 1239.1 1076.4C1205 1098 1180.6 1119.2 1162.4 1143.7C1144.2 1168.2 1133.4 1203.7 1153.3 1237.2" stroke="#20272B" stroke-miterlimit="10"/>
<path d="M447.7 17.4C521.5 1.5 601.1 13.9 666.7 51.7C732.3 89.5 784.2 151.9 806.5 224.4C822.7 277.3 819.8 333.7 824 387.2C828.6 446.7 844.9 497.2 870.7 541.4C896.5 585.6 938.4 623.2 996.3 641.8C1077.4 667.8 1172.2 637.1 1253.8 661.4C1340.3 687.2 1398.6 777.8 1394.5 869.6C1390.4 961.4 1321.2 1043.6 1247.2 1085.1C1212.7 1104.5 1185.7 1122.2 1164.6 1144.6C1143.4 1167 1128.7 1202 1145.8 1236.1" stroke="#20272B" stroke-miterlimit="10"/>
<path d="M470.8 12.2C544 -2.4 622.5 11.1 686.7 49.3C750.9 87.5 801.3 149.9 822.6 221.7C838.6 275.6 835.5 332.9 838.3 387.7C841.3 447.2 853.7 499.9 877.1 546.9C900.6 593.9 941.1 635.2 998.3 655.2C1079.6 683.5 1174.9 650.7 1257.9 673.4C1345.6 697.4 1407.3 787.3 1404.7 879.5C1402.1 971.8 1332.9 1055.4 1255.4 1093.7C1220.6 1110.9 1191 1125.1 1166.8 1145.4C1142.7 1165.8 1123.9 1200.1 1138.4 1235" stroke="#20272B" stroke-miterlimit="10"/>
<path d="M493.9 7.00001C566.5 -6.19999 643.8 8.3 706.8 46.9C769.8 85.5 818.5 147.9 838.9 219C854.7 274 851.5 332.2 852.7 388.3C854 447.9 862.5 502.7 883.6 552.5C904.7 602.3 943.9 647.4 1000.4 668.6C1081.9 699.3 1177.7 664.3 1262.1 685.4C1351.1 707.6 1416.1 796.7 1414.9 889.5C1413.7 982.2 1344.7 1067.6 1263.6 1102.4C1228.3 1117.5 1196.2 1128 1169.1 1146.3C1142 1164.6 1119.3 1198.3 1131 1234" stroke="#20272B" stroke-miterlimit="10"/>
<path d="M517 1.79997C589 -10.1 665.1 5.39999 726.8 44.5C788.5 83.6 835.5 145.9 855 216.3C870.5 272.3 867.3 331.4 867 388.8C866.7 448.4 871.2 505.3 890 558C908.8 610.6 946.5 659.5 1002.3 682C1084 715.1 1180.2 678 1266.2 697.4C1356.4 717.8 1424.8 806.2 1425 899.4C1425.2 992.6 1356.3 1079.9 1271.7 1111C1235.9 1124.1 1201.4 1130.9 1171.3 1147.2C1141.2 1163.5 1114.6 1196.5 1123.5 1233" stroke="#20272B" stroke-miterlimit="10"/>
<path d="M540.2 -3.40003C611.5 -13.9 686.6 2.59998 746.9 42.2C807.2 81.8 852.6 143.9 871.2 213.7C886.4 270.8 883.2 330.8 881.4 389.5C879.5 449.3 880 508.2 896.5 563.6C913 619.1 949.3 671.6 1004.4 695.5C1086.3 731 1183 691.8 1270.4 709.5C1361.9 728.2 1433.6 815.8 1435.3 909.5C1437 1003.2 1368.1 1092.6 1280 1119.8C1243.7 1131 1206.8 1134 1173.6 1148.2C1140.5 1162.4 1110 1194.9 1116.1 1232.1" stroke="#20272B" stroke-miterlimit="10"/>
<path d="M563.3 -8.6C634 -17.8 707.9 -0.200008 767 39.8C826 79.8 869.7 141.9 887.4 211C902.3 269.1 899.2 330.1 895.7 390C892.3 449.9 888.8 510.8 902.9 569.1C917.1 627.4 951.9 683.7 1006.4 708.9C1088.4 746.8 1185.7 705.4 1274.5 721.5C1367.2 738.4 1442.2 825.3 1445.4 919.4C1448.6 1013.5 1379.5 1105.3 1288.2 1128.4C1251.2 1137.7 1212 1136.8 1175.9 1149C1139.8 1161.2 1105.4 1193 1108.8 1230.9" stroke="#20272B" stroke-miterlimit="10"/>
</g>
<mask id="mask2_201_1087" style="mask-type:luminance" maskUnits="userSpaceOnUse" x="0" y="0" width="1200" height="800">
<path d="M1200 0H0V800H1200V0Z" fill="white"/>
</mask>
<g mask="url(#mask2_201_1087)">
<path d="M-174.9 132.7C-54.8999 104.3 80.4001 163.3 141.2 270.6C157.3 299 168.5 330 186.1 357.4C203.7 384.8 229.9 409.3 262.1 414.1C330.5 424.3 391.7 344.9 458.5 362.8C478.6 368.2 495.3 381.8 514.6 389.6C559.6 407.6 614.5 388.6 644 350.2C673.5 311.8 678.8 258 663.7 212C648.6 166 615 127.6 575.2 100C527.9 67.3 473.2 43.4 463.6 -20.2C454.3 -82.3 497 -143.1 559.2 -153.6H-174.5L-174.9 132.7Z" fill="#3E4259"/>
<path d="M697.8 935.6C739.3 915.8 756.5 861.9 745.3 816.8C734.2 771.7 700.7 735.1 663.2 707.7C625.8 680.3 583.6 660.2 545 634.5C509.5 611 458.6 564 477.6 515.7C487.1 491.4 513.7 475.1 539.6 477.3C559.6 479.1 576.2 490.8 596 493.3C618.2 496.1 641.3 492.6 661.5 483C750 441.1 744.1 280.9 852.9 268.7C934.9 259.5 1004.4 360.9 1035.6 423.8C1080.2 513.8 1087.2 613.3 1070.3 711.1C1063 753.2 1054.7 802.8 1025.4 835.4C1024.8 836.1 1024.1 836.8 1023.5 837.5C1007.8 854.1 987.2 865.9 965 871.3C940.2 877.4 917.3 881.8 892.6 889.6C860.6 899.7 828.7 909.8 796.7 920L697.8 935.6Z" fill="#3E4259"/>
</g>
<mask id="mask3_201_1087" style="mask-type:luminance" maskUnits="userSpaceOnUse" x="0" y="0" width="1200" height="800">
<path d="M1200 0H0V800H1200V0Z" fill="white"/>
</mask>
<g mask="url(#mask3_201_1087)">
<path d="M1099 229C1100.1 229 1101 228.105 1101 227C1101 225.895 1100.1 225 1099 225C1097.9 225 1097 225.895 1097 227C1097 228.105 1097.9 229 1099 229Z" fill="#D2CCFF"/>
<path d="M1076 229C1077.1 229 1078 228.105 1078 227C1078 225.895 1077.1 225 1076 225C1074.9 225 1074 225.895 1074 227C1074 228.105 1074.9 229 1076 229Z" fill="#D2CCFF"/>
<path d="M1053 229C1054.1 229 1055 228.105 1055 227C1055 225.895 1054.1 225 1053 225C1051.9 225 1051 225.895 1051 227C1051 228.105 1051.9 229 1053 229Z" fill="#D2CCFF"/>
<path d="M1030 229C1031.1 229 1032 228.105 1032 227C1032 225.895 1031.1 225 1030 225C1028.9 225 1028 225.895 1028 227C1028 228.105 1028.9 229 1030 229Z" fill="#D2CCFF"/>
<path d="M1007 229C1008.1 229 1009 228.105 1009 227C1009 225.895 1008.1 225 1007 225C1005.9 225 1005 225.895 1005 227C1005 228.105 1005.9 229 1007 229Z" fill="#D2CCFF"/>
<path d="M984 229C985.105 229 986 228.105 986 227C986 225.895 985.105 225 984 225C982.895 225 982 225.895 982 227C982 228.105 982.895 229 984 229Z" fill="#D2CCFF"/>
<path d="M961 229C962.105 229 963 228.105 963 227C963 225.895 962.105 225 961 225C959.895 225 959 225.895 959 227C959 228.105 959.895 229 961 229Z" fill="#D2CCFF"/>
<path d="M938 229C939.105 229 940 228.105 940 227C940 225.895 939.105 225 938 225C936.895 225 936 225.895 936 227C936 228.105 936.895 229 938 229Z" fill="#D2CCFF"/>
<path d="M915 229C916.105 229 917 228.105 917 227C917 225.895 916.105 225 915 225C913.895 225 913 225.895 913 227C913 228.105 913.895 229 915 229Z" fill="#D2CCFF"/>
<path d="M892 229C893.105 229 894 228.105 894 227C894 225.895 893.105 225 892 225C890.895 225 890 225.895 890 227C890 228.105 890.895 229 892 229Z" fill="#D2CCFF"/>
<path d="M869 229C870.105 229 871 228.105 871 227C871 225.895 870.105 225 869 225C867.895 225 867 225.895 867 227C867 228.105 867.895 229 869 229Z" fill="#D2CCFF"/>
<path d="M846 229C847.105 229 848 228.105 848 227C848 225.895 847.105 225 846 225C844.895 225 844 225.895 844 227C844 228.105 844.895 229 846 229Z" fill="#D2CCFF"/>
<path d="M823 229C824.105 229 825 228.105 825 227C825 225.895 824.105 225 823 225C821.895 225 821 225.895 821 227C821 228.105 821.895 229 823 229Z" fill="#D2CCFF"/>
<path d="M800 229C801.105 229 802 228.105 802 227C802 225.895 801.105 225 800 225C798.895 225 798 225.895 798 227C798 228.105 798.895 229 800 229Z" fill="#D2CCFF"/>
<path d="M777 229C778.105 229 779 228.105 779 227C779 225.895 778.105 225 777 225C775.895 225 775 225.895 775 227C775 228.105 775.895 229 777 229Z" fill="#D2CCFF"/>
<path d="M754 229C755.105 229 756 228.105 756 227C756 225.895 755.105 225 754 225C752.895 225 752 225.895 752 227C752 228.105 752.895 229 754 229Z" fill="#D2CCFF"/>
<path d="M1099 204C1100.1 204 1101 203.105 1101 202C1101 200.895 1100.1 200 1099 200C1097.9 200 1097 200.895 1097 202C1097 203.105 1097.9 204 1099 204Z" fill="#D2CCFF"/>
<path d="M1076 204C1077.1 204 1078 203.105 1078 202C1078 200.895 1077.1 200 1076 200C1074.9 200 1074 200.895 1074 202C1074 203.105 1074.9 204 1076 204Z" fill="#D2CCFF"/>
<path d="M1053 204C1054.1 204 1055 203.105 1055 202C1055 200.895 1054.1 200 1053 200C1051.9 200 1051 200.895 1051 202C1051 203.105 1051.9 204 1053 204Z" fill="#D2CCFF"/>
<path d="M1030 204C1031.1 204 1032 203.105 1032 202C1032 200.895 1031.1 200 1030 200C1028.9 200 1028 200.895 1028 202C1028 203.105 1028.9 204 1030 204Z" fill="#D2CCFF"/>
<path d="M1007 204C1008.1 204 1009 203.105 1009 202C1009 200.895 1008.1 200 1007 200C1005.9 200 1005 200.895 1005 202C1005 203.105 1005.9 204 1007 204Z" fill="#D2CCFF"/>
<path d="M984 204C985.105 204 986 203.105 986 202C986 200.895 985.105 200 984 200C982.895 200 982 200.895 982 202C982 203.105 982.895 204 984 204Z" fill="#D2CCFF"/>
<path d="M961 204C962.105 204 963 203.105 963 202C963 200.895 962.105 200 961 200C959.895 200 959 200.895 959 202C959 203.105 959.895 204 961 204Z" fill="#D2CCFF"/>
<path d="M938 204C939.105 204 940 203.105 940 202C940 200.895 939.105 200 938 200C936.895 200 936 200.895 936 202C936 203.105 936.895 204 938 204Z" fill="#D2CCFF"/>
<path d="M915 204C916.105 204 917 203.105 917 202C917 200.895 916.105 200 915 200C913.895 200 913 200.895 913 202C913 203.105 913.895 204 915 204Z" fill="#D2CCFF"/>
<path d="M892 204C893.105 204 894 203.105 894 202C894 200.895 893.105 200 892 200C890.895 200 890 200.895 890 202C890 203.105 890.895 204 892 204Z" fill="#D2CCFF"/>
<path d="M869 204C870.105 204 871 203.105 871 202C871 200.895 870.105 200 869 200C867.895 200 867 200.895 867 202C867 203.105 867.895 204 869 204Z" fill="#D2CCFF"/>
<path d="M846 204C847.105 204 848 203.105 848 202C848 200.895 847.105 200 846 200C844.895 200 844 200.895 844 202C844 203.105 844.895 204 846 204Z" fill="#D2CCFF"/>
<path d="M823 204C824.105 204 825 203.105 825 202C825 200.895 824.105 200 823 200C821.895 200 821 200.895 821 202C821 203.105 821.895 204 823 204Z" fill="#D2CCFF"/>
<path d="M800 204C801.105 204 802 203.105 802 202C802 200.895 801.105 200 800 200C798.895 200 798 200.895 798 202C798 203.105 798.895 204 800 204Z" fill="#D2CCFF"/>
<path d="M777 204C778.105 204 779 203.105 779 202C779 200.895 778.105 200 777 200C775.895 200 775 200.895 775 202C775 203.105 775.895 204 777 204Z" fill="#D2CCFF"/>
<path d="M754 204C755.105 204 756 203.105 756 202C756 200.895 755.105 200 754 200C752.895 200 752 200.895 752 202C752 203.105 752.895 204 754 204Z" fill="#D2CCFF"/>
<path d="M1099 179C1100.1 179 1101 178.105 1101 177C1101 175.895 1100.1 175 1099 175C1097.9 175 1097 175.895 1097 177C1097 178.105 1097.9 179 1099 179Z" fill="#D2CCFF"/>
<path d="M1076 179C1077.1 179 1078 178.105 1078 177C1078 175.895 1077.1 175 1076 175C1074.9 175 1074 175.895 1074 177C1074 178.105 1074.9 179 1076 179Z" fill="#D2CCFF"/>
<path d="M1053 179C1054.1 179 1055 178.105 1055 177C1055 175.895 1054.1 175 1053 175C1051.9 175 1051 175.895 1051 177C1051 178.105 1051.9 179 1053 179Z" fill="#D2CCFF"/>
<path d="M1030 179C1031.1 179 1032 178.105 1032 177C1032 175.895 1031.1 175 1030 175C1028.9 175 1028 175.895 1028 177C1028 178.105 1028.9 179 1030 179Z" fill="#D2CCFF"/>
<path d="M1007 179C1008.1 179 1009 178.105 1009 177C1009 175.895 1008.1 175 1007 175C1005.9 175 1005 175.895 1005 177C1005 178.105 1005.9 179 1007 179Z" fill="#D2CCFF"/>
<path d="M984 179C985.105 179 986 178.105 986 177C986 175.895 985.105 175 984 175C982.895 175 982 175.895 982 177C982 178.105 982.895 179 984 179Z" fill="#D2CCFF"/>
<path d="M961 179C962.105 179 963 178.105 963 177C963 175.895 962.105 175 961 175C959.895 175 959 175.895 959 177C959 178.105 959.895 179 961 179Z" fill="#D2CCFF"/>
<path d="M938 179C939.105 179 940 178.105 940 177C940 175.895 939.105 175 938 175C936.895 175 936 175.895 936 177C936 178.105 936.895 179 938 179Z" fill="#D2CCFF"/>
<path d="M915 179C916.105 179 917 178.105 917 177C917 175.895 916.105 175 915 175C913.895 175 913 175.895 913 177C913 178.105 913.895 179 915 179Z" fill="#D2CCFF"/>
<path d="M892 179C893.105 179 894 178.105 894 177C894 175.895 893.105 175 892 175C890.895 175 890 175.895 890 177C890 178.105 890.895 179 892 179Z" fill="#D2CCFF"/>
<path d="M869 179C870.105 179 871 178.105 871 177C871 175.895 870.105 175 869 175C867.895 175 867 175.895 867 177C867 178.105 867.895 179 869 179Z" fill="#D2CCFF"/>
<path d="M846 179C847.105 179 848 178.105 848 177C848 175.895 847.105 175 846 175C844.895 175 844 175.895 844 177C844 178.105 844.895 179 846 179Z" fill="#D2CCFF"/>
<path d="M823 179C824.105 179 825 178.105 825 177C825 175.895 824.105 175 823 175C821.895 175 821 175.895 821 177C821 178.105 821.895 179 823 179Z" fill="#D2CCFF"/>
<path d="M800 179C801.105 179 802 178.105 802 177C802 175.895 801.105 175 800 175C798.895 175 798 175.895 798 177C798 178.105 798.895 179 800 179Z" fill="#D2CCFF"/>
<path d="M777 179C778.105 179 779 178.105 779 177C779 175.895 778.105 175 777 175C775.895 175 775 175.895 775 177C775 178.105 775.895 179 777 179Z" fill="#D2CCFF"/>
<path d="M754 179C755.105 179 756 178.105 756 177C756 175.895 755.105 175 754 175C752.895 175 752 175.895 752 177C752 178.105 752.895 179 754 179Z" fill="#D2CCFF"/>
<path d="M1099 154C1100.1 154 1101 153.105 1101 152C1101 150.895 1100.1 150 1099 150C1097.9 150 1097 150.895 1097 152C1097 153.105 1097.9 154 1099 154Z" fill="#D2CCFF"/>
<path d="M1076 154C1077.1 154 1078 153.105 1078 152C1078 150.895 1077.1 150 1076 150C1074.9 150 1074 150.895 1074 152C1074 153.105 1074.9 154 1076 154Z" fill="#D2CCFF"/>
<path d="M1053 154C1054.1 154 1055 153.105 1055 152C1055 150.895 1054.1 150 1053 150C1051.9 150 1051 150.895 1051 152C1051 153.105 1051.9 154 1053 154Z" fill="#D2CCFF"/>
<path d="M1030 154C1031.1 154 1032 153.105 1032 152C1032 150.895 1031.1 150 1030 150C1028.9 150 1028 150.895 1028 152C1028 153.105 1028.9 154 1030 154Z" fill="#D2CCFF"/>
<path d="M1007 154C1008.1 154 1009 153.105 1009 152C1009 150.895 1008.1 150 1007 150C1005.9 150 1005 150.895 1005 152C1005 153.105 1005.9 154 1007 154Z" fill="#D2CCFF"/>
<path d="M984 154C985.105 154 986 153.105 986 152C986 150.895 985.105 150 984 150C982.895 150 982 150.895 982 152C982 153.105 982.895 154 984 154Z" fill="#D2CCFF"/>
<path d="M961 154C962.105 154 963 153.105 963 152C963 150.895 962.105 150 961 150C959.895 150 959 150.895 959 152C959 153.105 959.895 154 961 154Z" fill="#D2CCFF"/>
<path d="M938 154C939.105 154 940 153.105 940 152C940 150.895 939.105 150 938 150C936.895 150 936 150.895 936 152C936 153.105 936.895 154 938 154Z" fill="#D2CCFF"/>
<path d="M915 154C916.105 154 917 153.105 917 152C917 150.895 916.105 150 915 150C913.895 150 913 150.895 913 152C913 153.105 913.895 154 915 154Z" fill="#D2CCFF"/>
<path d="M892 154C893.105 154 894 153.105 894 152C894 150.895 893.105 150 892 150C890.895 150 890 150.895 890 152C890 153.105 890.895 154 892 154Z" fill="#D2CCFF"/>
<path d="M869 154C870.105 154 871 153.105 871 152C871 150.895 870.105 150 869 150C867.895 150 867 150.895 867 152C867 153.105 867.895 154 869 154Z" fill="#D2CCFF"/>
<path d="M846 154C847.105 154 848 153.105 848 152C848 150.895 847.105 150 846 150C844.895 150 844 150.895 844 152C844 153.105 844.895 154 846 154Z" fill="#D2CCFF"/>
<path d="M823 154C824.105 154 825 153.105 825 152C825 150.895 824.105 150 823 150C821.895 150 821 150.895 821 152C821 153.105 821.895 154 823 154Z" fill="#D2CCFF"/>
<path d="M800 154C801.105 154 802 153.105 802 152C802 150.895 801.105 150 800 150C798.895 150 798 150.895 798 152C798 153.105 798.895 154 800 154Z" fill="#D2CCFF"/>
<path d="M777 154C778.105 154 779 153.105 779 152C779 150.895 778.105 150 777 150C775.895 150 775 150.895 775 152C775 153.105 775.895 154 777 154Z" fill="#D2CCFF"/>
<path d="M754 154C755.105 154 756 153.105 756 152C756 150.895 755.105 150 754 150C752.895 150 752 150.895 752 152C752 153.105 752.895 154 754 154Z" fill="#D2CCFF"/>
<path d="M1099 129C1100.1 129 1101 128.105 1101 127C1101 125.895 1100.1 125 1099 125C1097.9 125 1097 125.895 1097 127C1097 128.105 1097.9 129 1099 129Z" fill="#D2CCFF"/>
<path d="M1076 129C1077.1 129 1078 128.105 1078 127C1078 125.895 1077.1 125 1076 125C1074.9 125 1074 125.895 1074 127C1074 128.105 1074.9 129 1076 129Z" fill="#D2CCFF"/>
<path d="M1053 129C1054.1 129 1055 128.105 1055 127C1055 125.895 1054.1 125 1053 125C1051.9 125 1051 125.895 1051 127C1051 128.105 1051.9 129 1053 129Z" fill="#D2CCFF"/>
<path d="M1030 129C1031.1 129 1032 128.105 1032 127C1032 125.895 1031.1 125 1030 125C1028.9 125 1028 125.895 1028 127C1028 128.105 1028.9 129 1030 129Z" fill="#D2CCFF"/>
<path d="M1007 129C1008.1 129 1009 128.105 1009 127C1009 125.895 1008.1 125 1007 125C1005.9 125 1005 125.895 1005 127C1005 128.105 1005.9 129 1007 129Z" fill="#D2CCFF"/>
<path d="M984 129C985.105 129 986 128.105 986 127C986 125.895 985.105 125 984 125C982.895 125 982 125.895 982 127C982 128.105 982.895 129 984 129Z" fill="#D2CCFF"/>
<path d="M961 129C962.105 129 963 128.105 963 127C963 125.895 962.105 125 961 125C959.895 125 959 125.895 959 127C959 128.105 959.895 129 961 129Z" fill="#D2CCFF"/>
<path d="M938 129C939.105 129 940 128.105 940 127C940 125.895 939.105 125 938 125C936.895 125 936 125.895 936 127C936 128.105 936.895 129 938 129Z" fill="#D2CCFF"/>
<path d="M915 129C916.105 129 917 128.105 917 127C917 125.895 916.105 125 915 125C913.895 125 913 125.895 913 127C913 128.105 913.895 129 915 129Z" fill="#D2CCFF"/>
<path d="M892 129C893.105 129 894 128.105 894 127C894 125.895 893.105 125 892 125C890.895 125 890 125.895 890 127C890 128.105 890.895 129 892 129Z" fill="#D2CCFF"/>
<path d="M869 129C870.105 129 871 128.105 871 127C871 125.895 870.105 125 869 125C867.895 125 867 125.895 867 127C867 128.105 867.895 129 869 129Z" fill="#D2CCFF"/>
<path d="M846 129C847.105 129 848 128.105 848 127C848 125.895 847.105 125 846 125C844.895 125 844 125.895 844 127C844 128.105 844.895 129 846 129Z" fill="#D2CCFF"/>
<path d="M823 129C824.105 129 825 128.105 825 127C825 125.895 824.105 125 823 125C821.895 125 821 125.895 821 127C821 128.105 821.895 129 823 129Z" fill="#D2CCFF"/>
<path d="M800 129C801.105 129 802 128.105 802 127C802 125.895 801.105 125 800 125C798.895 125 798 125.895 798 127C798 128.105 798.895 129 800 129Z" fill="#D2CCFF"/>
<path d="M777 129C778.105 129 779 128.105 779 127C779 125.895 778.105 125 777 125C775.895 125 775 125.895 775 127C775 128.105 775.895 129 777 129Z" fill="#D2CCFF"/>
<path d="M754 129C755.105 129 756 128.105 756 127C756 125.895 755.105 125 754 125C752.895 125 752 125.895 752 127C752 128.105 752.895 129 754 129Z" fill="#D2CCFF"/>
<path d="M1099 104C1100.1 104 1101 103.105 1101 102C1101 100.895 1100.1 100 1099 100C1097.9 100 1097 100.895 1097 102C1097 103.105 1097.9 104 1099 104Z" fill="#D2CCFF"/>
<path d="M1076 104C1077.1 104 1078 103.105 1078 102C1078 100.895 1077.1 100 1076 100C1074.9 100 1074 100.895 1074 102C1074 103.105 1074.9 104 1076 104Z" fill="#D2CCFF"/>
<path d="M1053 104C1054.1 104 1055 103.105 1055 102C1055 100.895 1054.1 100 1053 100C1051.9 100 1051 100.895 1051 102C1051 103.105 1051.9 104 1053 104Z" fill="#D2CCFF"/>
<path d="M1030 104C1031.1 104 1032 103.105 1032 102C1032 100.895 1031.1 100 1030 100C1028.9 100 1028 100.895 1028 102C1028 103.105 1028.9 104 1030 104Z" fill="#D2CCFF"/>
<path d="M1007 104C1008.1 104 1009 103.105 1009 102C1009 100.895 1008.1 100 1007 100C1005.9 100 1005 100.895 1005 102C1005 103.105 1005.9 104 1007 104Z" fill="#D2CCFF"/>
<path d="M984 104C985.105 104 986 103.105 986 102C986 100.895 985.105 100 984 100C982.895 100 982 100.895 982 102C982 103.105 982.895 104 984 104Z" fill="#D2CCFF"/>
<path d="M961 104C962.105 104 963 103.105 963 102C963 100.895 962.105 100 961 100C959.895 100 959 100.895 959 102C959 103.105 959.895 104 961 104Z" fill="#D2CCFF"/>
<path d="M938 104C939.105 104 940 103.105 940 102C940 100.895 939.105 100 938 100C936.895 100 936 100.895 936 102C936 103.105 936.895 104 938 104Z" fill="#D2CCFF"/>
<path d="M915 104C916.105 104 917 103.105 917 102C917 100.895 916.105 100 915 100C913.895 100 913 100.895 913 102C913 103.105 913.895 104 915 104Z" fill="#D2CCFF"/>
<path d="M892 104C893.105 104 894 103.105 894 102C894 100.895 893.105 100 892 100C890.895 100 890 100.895 890 102C890 103.105 890.895 104 892 104Z" fill="#D2CCFF"/>
<path d="M869 104C870.105 104 871 103.105 871 102C871 100.895 870.105 100 869 100C867.895 100 867 100.895 867 102C867 103.105 867.895 104 869 104Z" fill="#D2CCFF"/>
<path d="M846 104C847.105 104 848 103.105 848 102C848 100.895 847.105 100 846 100C844.895 100 844 100.895 844 102C844 103.105 844.895 104 846 104Z" fill="#D2CCFF"/>
<path d="M823 104C824.105 104 825 103.105 825 102C825 100.895 824.105 100 823 100C821.895 100 821 100.895 821 102C821 103.105 821.895 104 823 104Z" fill="#D2CCFF"/>
<path d="M800 104C801.105 104 802 103.105 802 102C802 100.895 801.105 100 800 100C798.895 100 798 100.895 798 102C798 103.105 798.895 104 800 104Z" fill="#D2CCFF"/>
<path d="M777 104C778.105 104 779 103.105 779 102C779 100.895 778.105 100 777 100C775.895 100 775 100.895 775 102C775 103.105 775.895 104 777 104Z" fill="#D2CCFF"/>
<path d="M754 104C755.105 104 756 103.105 756 102C756 100.895 755.105 100 754 100C752.895 100 752 100.895 752 102C752 103.105 752.895 104 754 104Z" fill="#D2CCFF"/>
</g>
<mask id="mask4_201_1087" style="mask-type:luminance" maskUnits="userSpaceOnUse" x="0" y="0" width="1200" height="800">
<path d="M1200 0H0V800H1200V0Z" fill="white"/>
</mask>
<g mask="url(#mask4_201_1087)">
<path d="M-184 233C-140.7 198.6 -94.4 167.5 -43.7 153.8C6.9 140.2 62.7 146 103.4 180.4C152 221.5 174.8 298.1 230.1 326.4C265.9 344.7 307.7 338.7 347.4 335.6C387.2 332.5 430.6 334.1 460 363.6C512.7 416.5 493.9 531.1 551 577.7C588.7 608.4 641.1 594.4 687.9 598C747.1 602.6 802.7 639.3 835.2 695.3C867.7 751.3 876.4 825.5 858.4 891.9" stroke="#070707" stroke-miterlimit="10"/>
<path d="M-178.6 224.5C-135.5 190.6 -89.2001 160.3 -38.8001 147.3C-8.40009 139.4 23.8999 138.5 53.5999 146.5C72.9999 151.7 91.2999 160.8 107.3 174.1C155.8 214.6 179.5 289.5 233.5 318.8C252.7 329.2 273.4 332.9 294.9 333.6C313.1 334.2 331.8 332.7 350.2 331.6C376 330 403.5 329.9 427.7 337.5C441.1 341.7 453.5 348.2 464.1 358C485 377.2 495.7 405.1 504.3 434.9C516.8 477.8 525.2 524.8 552.6 555.3C555.5 558.6 558.7 561.6 562.1 564.5C599.5 595.9 649.7 584.9 693.8 590.5C737 596.1 777.6 620.3 808.4 657.6C817.3 668.4 825.3 680.3 832.4 693.1C845.1 716.2 854.4 742.1 860.1 769C868.7 809 869.4 851.1 861.1 889.8" stroke="#23292E" stroke-miterlimit="10"/>
<path d="M-173.3 215.9C-130.3 182.6 -84.1001 153.1 -33.9001 140.6C-3.60006 133 28.4 132.3 57.9 140.3C77.2 145.5 95.4 154.4 111.4 167.6C159.8 207.4 184.2 280.7 237 310.9C256 321.7 276.2 326.4 297.5 327.9C315.6 329.2 334.4 328.2 352.9 327.3C378.9 326.1 406.6 326 431.1 333C444.6 336.9 457.1 342.9 468.1 352.2C489.5 370.2 501.3 396.4 511 424.7C525.1 465.4 535.7 510.8 563.5 541.7C566.5 545 569.6 548.1 573 551C610.2 583 658 575 699.4 582.8C739.9 590.4 777.4 615.9 806.3 654.2C814.7 665.3 822.4 677.5 829.2 690.6C841.5 714.2 850.9 740.5 857.2 767.6C866.6 807.9 869.3 849.7 863.5 887.4" stroke="#2A2F37" stroke-miterlimit="10"/>
<path d="M-168 207.4C-125.2 174.6 -79 145.9 -29 134C1.1 126.8 32.8 126.2 62.1 134.2C81.2 139.4 99.3 148.2 115.3 161.2C163.7 200.4 188.9 272.1 240.5 303.1C259.2 314.4 279 320 300.2 322.2C318.2 324.2 337 323.6 355.7 323.1C381.9 322.3 409.9 322.2 434.6 328.6C448.3 332.2 461 337.8 472.2 346.4C494.2 363.2 506.9 387.6 517.8 414.5C533.6 453.1 546.4 496.7 574.5 528.1C577.5 531.4 580.6 534.6 584 537.6C621 570.3 666.5 565.3 705.1 575.1C743 584.7 777.2 611.5 804.4 650.9C812.3 662.3 819.6 674.9 826.2 688.2C838.1 712.4 847.6 739 854.4 766.3C864.7 806.9 869.3 848.4 866 885" stroke="#31363F" stroke-miterlimit="10"/>
<path d="M-162.7 198.9C-120 166.7 -73.9 138.8 -24.2 127.4C5.70005 120.5 37.2 120.1 66.3 128.1C85.3 133.3 103.3 142 119.2 154.7C167.6 193.3 193.5 263.4 243.9 295.3C262.4 307 281.7 313.5 302.7 316.6C320.6 319.2 339.5 319.2 358.4 319C384.8 318.6 413 318.4 438.1 324.3C451.9 327.5 464.8 332.8 476.3 340.7C498.9 356.3 512.5 379.1 524.6 404.3C542 440.7 557 482.7 585.6 514.5C588.6 517.9 591.8 521.1 595.1 524.1C631.8 557.4 675.1 555.4 711 567.3C746.2 578.9 777.2 607 802.6 647.5C810 659.3 816.9 672.1 823.3 685.7C834.8 710.4 844.4 737.5 851.8 764.9C863 805.8 869.4 847 868.7 882.6" stroke="#383C47" stroke-miterlimit="10"/>
<path d="M-157.4 190.3C-114.8 158.6 -68.7999 131.5 -19.2999 120.7C10.4001 114.1 41.6001 114 70.6001 121.9C89.5001 127.1 107.4 135.7 123.2 148.2C171.5 186.2 198.3 254.7 247.4 287.4C265.7 299.6 284.5 307 305.4 310.8C323.2 314.1 342.2 314.6 361.2 314.6C387.7 314.6 416.3 314.4 441.6 319.7C455.6 322.6 468.6 327.4 480.3 334.7C503.5 349.1 518.1 370.2 531.3 393.9C550.3 428.2 567.6 468.5 596.5 500.7C599.6 504.1 602.7 507.4 606 510.5C642.5 544.4 683.5 545.5 716.6 559.4C749.2 573.1 776.9 602.4 800.6 643.9C807.5 656 814 669.2 820.2 683C831.3 708.2 841 735.7 848.9 763.2C860.9 804.3 869.3 845.3 871.1 879.9" stroke="#3F4350" stroke-miterlimit="10"/>
<path d="M-152.1 181.8C-109.7 150.6 -63.7001 124.4 -14.4001 114.1C15.0999 107.8 46.0999 107.9 74.7999 115.8C93.4999 121 111.3 129.5 127.1 141.8C175.4 179.2 202.9 246.1 250.8 279.6C268.9 292.3 287.2 300.6 308 305.1C325.7 309 344.7 310.1 363.9 310.4C390.6 310.8 419.4 310.6 445 315.4C459.1 318 472.3 322.4 484.3 329C508 342.2 523.7 361.6 538 383.8C558.7 415.9 578.1 454.6 607.4 487.2C610.5 490.6 613.7 493.9 617 497.1C653.3 531.7 692 535.8 722.4 551.8C752.3 567.5 776.9 598.2 798.7 640.7C805.1 653.1 811.3 666.6 817.2 680.7C827.9 706.5 837.7 734.3 846.2 762C859.1 803.4 869.4 844.1 873.7 877.7" stroke="#464958" stroke-miterlimit="10"/>
<path d="M-146.7 173.2C-104.4 142.6 -58.4999 117.2 -9.49994 107.4C19.8001 101.5 50.5 101.7 79.1 109.6C97.7 114.8 115.4 123.2 131.1 135.2C179.3 171.9 207.6 237.4 254.2 271.7C272.1 284.9 289.9 294 310.5 299.4C328.1 304 347.2 305.5 366.5 306.1C393.4 306.9 422.5 306.6 448.3 310.9C462.6 313.2 476 317.1 488.2 323.2C512.5 335.2 529.1 352.8 544.6 373.6C566.9 403.6 588.5 440.6 618.3 473.6C621.4 477.1 624.6 480.4 627.9 483.6C664 518.8 700.4 526 728 544C755.3 561.8 776.6 593.7 796.7 637.3C802.6 650.1 808.4 663.8 814.1 678.3C824.4 704.6 834.2 732.9 843.3 760.7C857 802.4 869.3 842.9 876.1 875.4" stroke="#4D5060" stroke-miterlimit="10"/>
<path d="M-141.4 164.7C-99.1999 134.6 -53.3999 110 -4.59991 100.8C24.6001 95.2 55.0001 95.6 83.3001 103.5C101.8 108.6 119.3 117 135.1 128.8C183.3 164.9 212.3 228.9 257.7 263.9C275.4 277.5 292.8 287.6 313.2 293.7C330.7 298.9 349.9 301 369.4 301.9C396.5 303.1 425.8 302.8 452 306.5C466.4 308.5 480 312 492.5 317.4C517.4 328.2 535 344.1 551.6 363.4C575.6 391.2 599.4 426.6 629.5 460C632.6 463.5 635.8 466.9 639.1 470.2C674.9 506.1 709.2 516.4 733.9 536.3C758.7 556.2 776.6 589.3 795 633.9C800.4 647 805.8 661.1 811.3 675.8C821.2 702.6 831.1 731.3 840.8 759.3C855.4 801.3 869.6 841.5 878.9 873" stroke="#545669" stroke-miterlimit="10"/>
<path d="M-136.1 156.2C-94.1001 126.7 -48.2001 102.9 0.299911 94.2C29.2999 88.9 59.4999 89.5 87.5999 97.4C105.9 102.5 123.4 110.7 139.1 122.4C187.3 157.9 217 220.3 261.2 256.2C278.7 270.3 295.6 281.3 315.9 288.2C333.3 294.1 352.5 296.7 372.2 297.9C399.5 299.5 429 299.2 455.5 302.3C470.1 304 483.9 307 496.5 311.8C522 321.4 540.6 335.6 558.3 353.4C583.9 379.1 609.9 412.8 640.4 446.6C643.6 450.1 646.8 453.6 650 456.9C685.6 493.4 717.6 506.9 739.6 528.7C761.8 550.8 776.4 585.1 793 630.7C797.9 644.1 803 658.5 808.2 673.5C817.7 700.8 827.7 729.9 837.9 758.1C853.4 800.4 869.5 840.3 881.3 870.8" stroke="#5B5D71" stroke-miterlimit="10"/>
<path d="M-130.8 147.6C-88.9 118.6 -43.1001 95.6 5.09995 87.5C33.8999 82.6 63.8 83.4 91.8 91.2C110 96.3 127.4 104.4 143 115.8C191.1 150.7 221.5 211.6 264.6 248.2C281.8 262.8 298.3 274.7 318.4 282.3C335.7 288.9 355 291.9 374.8 293.4C402.3 295.4 432.1 295.1 458.8 297.6C473.5 299 487.5 301.5 500.4 305.7C526.5 314.1 546 326.6 564.9 342.9C592.2 366.4 620.4 398.5 651.3 432.6C654.5 436.2 657.7 439.7 661 443.1C696.4 480.3 726.2 496.9 745.3 520.7C764.9 544.9 776.2 580.4 791.1 627.1C795.5 640.9 800.2 655.6 805.2 670.8C814.3 698.7 824.4 728.2 835.2 756.5C851.5 799.1 869.6 838.7 883.9 868.2" stroke="#626379" stroke-miterlimit="10"/>
<path d="M-125.5 139.1C-83.7 110.7 -38 88.5 10 80.9C38.6 76.3 68.3 77.3 96 85.1C114.1 90.2 131.3 98.2 146.9 109.4C195 143.7 226.1 203.2 268 240.4C285 255.5 301 268.3 321 276.7C338.2 283.9 357.6 287.5 377.5 289.3C405.1 291.7 435.2 291.3 462.2 293.3C477.1 294.4 491.2 296.5 504.4 300C531.1 307.2 551.6 318 571.6 332.8C600.6 354.2 630.9 384.5 662.2 419.1C665.4 422.7 668.7 426.2 671.9 429.7C707.1 467.5 734.6 487.4 751 513C767.9 539.5 776 576.1 789.1 623.7C793 637.8 797.3 652.8 802.1 668.3C810.8 696.7 821 726.6 832.3 755.1C849.5 798 869.5 837.3 886.3 865.8" stroke="#696A82" stroke-miterlimit="10"/>
<path d="M-120.2 130.5C-78.6 102.6 -32.8999 81.2 14.9001 74.2C43.3001 69.9 72.7 71.1 100.3 78.9C118.3 84 135.4 91.9 150.9 102.9C198.9 136.5 230.8 194.6 271.5 232.6C288.3 248.2 303.8 261.9 323.7 271C340.8 278.9 360.2 283 380.4 285C408.2 287.8 438.6 287.4 465.9 288.8C481 289.6 495.3 291.2 508.7 294.1C536.1 300.1 557.5 309.2 578.6 322.5C609.3 341.7 641.8 370.4 673.4 405.4C676.7 409 679.9 412.6 683.1 416.2C718 454.6 743.2 477.8 756.9 505.2C771.2 533.9 776 571.6 787.4 620.3C790.8 634.8 794.8 650.1 799.3 665.8C807.6 694.7 817.9 725 829.8 753.7C847.9 796.9 869.8 835.9 889.1 863.4" stroke="#70708A" stroke-miterlimit="10"/>
<path d="M-114.8 122C-73.3 94.7 -27.7 74.1 19.8 67.6C48 63.7 77.1999 65 104.5 72.8C122.3 77.9 139.3 85.7 154.8 96.4C202.8 129.4 235.3 186 274.9 224.7C291.5 240.9 306.5 255.3 326.2 265.3C343.2 273.9 362.7 278.5 383 280.8C411 284 441.6 283.6 469.2 284.4C484.4 284.9 498.9 286.1 512.5 288.4C540.5 293.1 562.9 300.6 585.1 312.4C617.4 329.5 652.1 356.5 684.2 391.9C687.5 395.6 690.7 399.2 693.9 402.8C728.6 441.9 751.5 468.3 762.4 497.5C774 528.5 775.6 567.3 785.3 617C788.2 631.8 791.8 647.4 796.1 663.4C804 692.9 814.4 723.6 826.8 752.3C845.7 795.8 869.6 834.5 891.4 860.9" stroke="#777792" stroke-miterlimit="10"/>
<path d="M-109.5 113.5C-68.1 86.7 -22.6 67 24.7 61C52.8 57.4 81.7 59 108.8 66.7C126.5 71.8 143.4 79.5 158.9 90C206.8 122.4 240 177.6 278.5 216.9C294.8 233.6 309.4 248.9 329 259.6C345.9 268.8 365.5 273.9 385.9 276.6C414.1 280.2 445 279.7 472.8 280C488.2 280.2 502.9 280.9 516.7 282.6C545.3 286.1 568.7 291.9 592 302.1C626 317 662.8 342.4 695.3 378.2C698.6 381.9 701.9 385.6 705 389.3C739.5 429 760 458.7 768.3 489.8C777.2 523 775.6 562.9 783.5 613.6C785.9 628.7 789.1 644.7 793.2 660.9C800.7 690.9 811.2 722 824.2 750.9C844 794.7 869.8 833.1 894.1 858.5" stroke="#7E7E9B" stroke-miterlimit="10"/>
<path d="M-104.2 104.9C-63 78.7 -17.5 59.7 29.6 54.3C57.5 51 86.1 52.8 113.1 60.6C130.7 65.7 147.5 73.3 162.9 83.6C210.8 115.4 244.7 169.2 282 209.2C298.1 226.4 312.3 242.6 331.7 254C348.5 263.9 368.1 269.5 388.7 272.4C417.1 276.4 448.2 275.9 476.3 275.6C491.8 275.4 506.7 275.7 520.8 276.8C550 279.1 574.3 283.2 598.8 291.9C634.5 304.6 673.5 328.4 706.3 364.6C709.7 368.3 712.9 372.1 716.1 375.8C750.3 416.2 768.5 449.1 774.1 482C780.2 517.5 775.5 558.5 781.7 610.2C783.6 625.7 786.4 641.9 790.3 658.5C797.4 689.1 808 720.5 821.5 749.6C842.2 793.7 869.9 831.8 896.8 856.2" stroke="#8584A3" stroke-miterlimit="10"/>
<path d="M-98.8999 96.4C-57.7999 70.7 -12.3999 52.6 34.5001 47.7C62.2001 44.7 90.6001 46.7 117.3 54.5C134.7 59.6 151.4 67.1 166.8 77.1C214.6 108.3 249.2 160.7 285.4 201.3C301.2 219 315 236.1 334.2 248.3C350.9 258.9 370.6 265 391.3 268.2C419.9 272.6 451.3 272.1 479.7 271.3C495.4 270.8 510.4 270.6 524.8 271.1C554.6 272.1 579.9 274.6 605.5 281.8C642.9 292.4 684 314.5 717.3 351.1C720.7 354.8 724 358.6 727.1 362.4C761.1 403.4 776.8 439.5 779.9 474.3C783.2 512 775.3 554.1 779.8 606.9C781.2 622.7 783.6 639.3 787.3 656.1C794 687.2 804.6 719.1 818.7 748.3C840.2 792.7 869.9 830.5 899.3 853.9" stroke="#8C8BAC" stroke-miterlimit="10"/>
<path d="M-93.6001 87.9C-52.6001 62.8 -7.30009 45.4 39.2999 41.1C66.7999 38.5 94.8999 40.6 121.5 48.4C138.8 53.4 155.4 60.8 170.7 70.7C218.5 101.2 253.7 152.3 288.8 193.6C304.4 211.9 317.7 229.8 336.8 242.7C353.4 254 373.2 260.5 394.1 264.1C422.8 268.9 454.5 268.4 483.2 267C499 266.2 514.3 265.9 528.8 265.4C559.2 264.5 585.5 266 612.2 271.7C651.2 280.1 694.6 300.6 728.2 337.6C731.6 341.4 734.9 345.2 738 349.1C771.8 390.8 785.1 430.1 785.5 466.7C786 506.6 775 549.9 777.8 603.6C778.6 619.7 780.7 636.6 784.2 653.7C790.5 685.3 801.2 717.6 815.9 747C838.3 791.7 869.9 829.2 901.8 851.6" stroke="#9391B4" stroke-miterlimit="10"/>
<path d="M-88.3 79.3C-47.5 54.7 -2.20005 38.2 44.2 34.4C71.5 32.1 99.4 34.5 125.7 42.2C142.9 47.2 159.4 54.5 174.6 64.1C222.4 94 258.1 143.7 292.2 185.6C307.5 204.4 320.4 223.2 339.4 236.9C355.9 248.8 375.7 255.9 396.8 259.7C425.7 264.9 457.7 264.3 486.6 262.4C502.6 261.3 518 260.2 532.8 259.5C563.8 258 591.1 257.1 618.9 261.4C659.6 267.6 705.1 286.5 739.1 323.9C742.6 327.7 745.8 331.6 748.9 335.5C782.5 377.8 793.3 420.3 791.1 458.9C788.8 501 774.7 545.4 775.8 600.2C776.1 616.7 777.9 633.9 781.1 651.2C787 683.4 797.8 716 813 745.6C836.3 790.5 869.7 827.8 904.2 849.2" stroke="#9A98BC" stroke-miterlimit="10"/>
<path d="M-82.8999 70.8C-42.1999 46.8 3.0001 31 49.2001 27.8C76.3001 25.8 104 28.4 130.1 36.1C147.1 41.1 163.5 48.3 178.7 57.7C226.4 87 262.8 135.3 295.8 177.8C310.8 197.2 323.3 216.8 342.1 231.2C358.5 243.8 378.4 251.4 399.6 255.5C428.7 261.1 460.9 260.5 490.1 258C506.2 256.6 521.9 255 536.9 253.7C568.5 250.9 596.8 248.4 625.7 251.2C668.1 255.3 715.7 272.4 750.2 310.3C753.7 314.1 757 318.1 760.1 322.1C793.4 365 801.8 410.7 797.1 451.2C791.9 495.5 774.7 541.1 774.1 596.9C773.9 613.7 775.3 631.2 778.3 648.8C783.8 681.5 794.7 714.6 810.5 744.3C834.6 789.5 870 826.5 907 846.9" stroke="#A19EC5" stroke-miterlimit="10"/>
<path d="M-77.6001 62.2C-37.0001 38.7 8.09989 23.8 53.9999 21.1C80.9999 19.5 108.3 22.2 134.3 29.9C151.2 34.9 167.5 42 182.7 51.2C230.4 79.9 267.3 126.8 299.3 170C314 189.9 326.1 210.4 344.8 225.6C361.1 238.9 381.1 247 402.4 251.3C431.7 257.2 464.2 256.7 493.6 253.6C509.9 251.9 525.7 249.8 541 247.9C573.2 243.9 602.4 239.7 632.5 241C676.5 242.9 726.4 258.4 761.2 296.7C764.7 300.6 768 304.6 771.1 308.6C804.2 352.2 810.1 401 802.8 443.4C794.8 489.8 774.5 536.6 772.2 593.4C771.5 610.6 772.5 628.3 775.3 646.2C780.4 679.4 791.4 712.9 807.7 742.8C832.7 788.3 870 825 909.5 844.4" stroke="#A8A5CD" stroke-miterlimit="10"/>
<path d="M-72.3 53.7C-31.9 30.7 13.2 16.7 58.9 14.5C85.7 13.2 112.8 16.1 138.5 23.8C155.3 28.8 171.4 35.8 186.6 44.7C234.2 72.7 271.8 118.3 302.7 162.1C317.1 182.6 328.8 203.9 347.4 219.8C363.6 233.8 383.6 242.3 405.2 247C434.7 253.3 467.4 252.7 497.2 249.1C513.7 247.1 529.6 244.5 545.1 242C577.9 236.7 608.1 230.8 639.3 230.7C685 230.3 737 244.3 772.2 283C775.8 286.9 779 290.9 782.1 295.1C815 339.3 818.4 391.3 808.6 435.6C797.8 484.2 774.4 532.2 770.3 590C769.1 607.5 769.7 625.6 772.3 643.7C777 677.5 788.1 711.3 805 741.4C830.9 787.2 870.1 823.6 912.1 842" stroke="#AFABD5" stroke-miterlimit="10"/>
<path d="M-67 45.2C-26.7 22.8 18.3 9.49998 63.8 7.89998C90.4 6.89998 117.2 10.1 142.8 17.7C159.4 22.7 175.5 29.6 190.6 38.3C238.2 65.7 276.3 109.9 306.2 154.3C320.4 175.3 331.6 197.5 350 214.2C366.1 228.9 386.2 237.9 407.9 242.9C437.6 249.6 470.6 249 500.6 244.8C517.2 242.5 533.4 239.4 549.1 236.3C582.5 229.7 613.7 222.2 646 220.6C693.4 218 747.6 230.4 783.2 269.5C786.8 273.4 790.1 277.5 793.1 281.7C825.8 326.6 826.8 381.7 814.3 428C800.6 478.7 774.1 527.9 768.4 586.8C766.7 604.6 767 623 769.3 641.4C773.6 675.7 784.8 710 802.2 740.1C828.9 786.2 870.1 822.3 914.6 839.7" stroke="#B6B2DE" stroke-miterlimit="10"/>
<path d="M-61.7 36.6C-21.6 14.7 23.4 2.29998 68.6 1.19998C95 0.499985 121.6 3.89999 146.9 11.5C163.4 16.5 179.4 23.3 194.4 31.8C241.9 58.6 280.6 101.4 309.5 146.5C323.3 168.1 334.2 191.1 352.5 208.5C368.5 223.8 388.6 233.4 410.5 238.6C440.3 245.7 473.6 245.1 503.9 240.3C520.7 237.7 537 234.1 553 230.5C587 222.6 619.1 213.5 652.6 210.4C701.6 205.7 758 216.4 794 255.9C797.6 259.9 800.9 264 804 268.3C836.4 313.8 835 372.1 819.9 420.3C803.4 473.2 773.7 523.5 766.4 583.4C764.1 601.6 764.1 620.3 766.2 639C770.1 673.8 781.4 708.5 799.4 738.8C827 785.2 870.1 821 917.1 837.3" stroke="#BDB8E6" stroke-miterlimit="10"/>
<path d="M-56.3999 28.1C-16.3999 6.79999 28.5001 -4.90001 73.5001 -5.40001C99.7001 -5.70001 126.1 -2.20001 151.2 5.39999C167.6 10.4 183.4 17 198.4 25.3C245.9 51.5 285.1 93 313 138.6C326.5 160.7 337 184.6 355.1 202.7C371 218.7 391.2 228.7 413.2 234.3C443.2 241.8 476.8 241.1 507.3 235.8C524.2 232.9 540.7 228.9 557 224.6C591.6 215.5 624.7 204.7 659.3 200C710 193.1 768.5 202.2 804.9 242.1C808.5 246.1 811.9 250.3 814.9 254.6C847.1 300.8 843.2 362.1 825.6 412.3C806.3 467.3 773.5 518.9 764.4 579.8C761.6 598.3 761.2 617.3 763.1 636.3C766.6 671.7 778 706.7 796.5 737.2C825 783.9 870 819.4 919.5 834.7" stroke="#C4BFEE" stroke-miterlimit="10"/>
<path d="M-51 19.5C-11.1 -1.3 33.7 -12.1 78.5 -12.1C104.5 -12.1 130.6 -8.4 155.6 -0.800003C171.9 4.1 187.6 10.7 202.5 18.8C249.9 44.4 289.6 84.5 316.6 130.8C329.8 153.5 339.9 178.1 357.9 197.1C373.7 213.8 394 224.3 416.2 230.2C446.4 238.1 480.2 237.4 511.1 231.6C528.2 228.4 544.8 223.9 561.3 219C596.4 208.5 630.6 196.2 666.3 190C718.7 181 779.4 188.4 816.2 228.7C819.9 232.7 823.2 237 826.2 241.3C858.2 288.1 851.8 352.6 831.6 404.7C809.4 461.7 773.5 514.6 762.8 576.6C759.5 595.4 758.8 614.8 760.4 634C763.5 669.9 775 705.3 794.1 736C823.4 783 870.4 818.2 922.4 832.5" stroke="#CBC5F7" stroke-miterlimit="10"/>
<path d="M-45.7 11C17.1 -20.9 92.4 -27.5 159.8 -6.90002C227.2 13.7 285.8 61.4 319.9 123C332.8 146.3 342.5 171.7 360.4 191.4C397.4 232.3 460.3 238.2 514.4 227.1C568.4 216 618.8 190.9 672.9 179.7C726.9 168.5 789.8 174.3 827 215C870.3 262.5 862.1 337.8 837.2 396.9C812.2 456.1 773.2 510.1 760.7 573.1C749.8 628.1 760.9 687.2 791.1 734.5C821.3 781.8 870.2 816.7 924.7 830" stroke="#D2CCFF" stroke-miterlimit="10"/>
<path d="M-29 7.19997C33.4 -23.8 107.8 -29.6 174.2 -8.60003C240.6 12.4 298.5 59.7 331.6 121C344.5 144.9 353.5 171.4 370.8 191.8C405.9 233.2 466.7 240.2 519.1 231.1C571.4 222 620.8 199.3 674.3 189.5C728.5 179.5 791.7 184.2 829.9 223.8C874.1 269.9 868.4 344.7 844.4 404.3C820.4 463.9 780.4 518.2 766.5 579.6C754.5 632.7 764.6 689.5 792.6 735.3C820.6 781.1 866.7 815.6 919.2 829.4" stroke="#CDC9FE" stroke-miterlimit="10"/>
<path d="M-12.2 3.50001C49.7001 -26.5 123.3 -31.6 188.8 -10.3C254.3 11 311.4 58.1 343.4 119.1C356.3 143.7 364.5 171.1 381.2 192.2C414.3 234 473.1 242.2 523.7 235.1C574.4 228.1 622.8 207.7 675.7 199.2C730.1 190.5 793.7 193.9 832.9 232.5C878.1 277.1 874.7 351.6 851.8 411.5C828.9 471.4 787.9 526.1 772.5 585.8C759.3 636.9 768.5 691.6 794.3 735.9C820.2 780.2 863.4 814.3 913.9 828.6" stroke="#C7C6FE" stroke-miterlimit="10"/>
<path d="M4.5 -0.300011C66 -29.3 138.7 -33.6 203.3 -12.1C267.9 9.39999 324.1 56.4 355.1 117.1C368 142.4 375.4 170.7 391.6 192.6C422.8 234.8 479.4 244.1 528.4 239.1C577.4 234.1 624.8 216 677.2 208.9C731.7 201.5 795.8 203.6 835.9 241.2C882.1 284.4 881 358.5 859.2 418.7C837.4 478.9 795.3 533.9 778.4 592.1C764.2 641.1 772.2 693.7 795.9 736.6C819.6 779.4 860 813 908.5 827.9" stroke="#C2C3FD" stroke-miterlimit="10"/>
<path d="M21.3 -4.10002C82.3 -32.2 154.3 -35.7 217.9 -13.8C281.5 8.09998 336.9 54.9 366.9 115.2C379.8 141.2 386.4 170.3 402.1 193.1C431.4 235.6 485.9 246.2 533.2 243.3C580.5 240.4 626.9 224.6 678.8 218.8C733.6 212.6 797.9 213.6 839.1 250.1C886.3 291.9 887.5 365.5 866.8 426.1C846 486.7 803 541.8 784.6 598.5C769.3 645.5 776.3 696 797.8 737.4C819.3 778.8 856.9 811.9 903.4 827.4" stroke="#BDC0FD" stroke-miterlimit="10"/>
<path d="M38 -7.8C98.6 -34.9 169.7 -37.7 232.3 -15.5C294.9 6.7 349.5 53.3 378.5 113.2C391.4 139.9 397.3 169.9 412.4 193.4C439.8 236.2 492.2 248.1 537.8 247.2C583.4 246.3 628.9 233 680.2 228.4C735.2 223.5 799.8 223.3 842 258.7C890.1 299.1 893.8 372.3 874 433.2C854.3 494.1 810.3 549.5 790.3 604.7C774 649.7 779.9 698 799.2 737.9C818.5 777.8 853.3 810.5 897.7 826.5" stroke="#B8BDFC" stroke-miterlimit="10"/>
<path d="M54.8 -11.6C114.9 -37.7 185.2 -39.8 246.9 -17.2C308.6 5.39998 362.2 51.8 390.3 111.3C403.2 138.7 408.3 169.5 422.8 193.9C448.4 236.9 498.5 250.1 542.5 251.3C586.4 252.5 630.9 241.5 681.7 238.2C736.9 234.7 801.8 233.1 845.1 267.5C894.2 306.5 900.2 379.3 881.5 440.6C862.8 501.9 818 557.4 796.4 611.1C779.2 654 783.8 700.3 801 738.7C818.2 777.1 850.1 809.3 892.5 825.9" stroke="#B2BAFC" stroke-miterlimit="10"/>
<path d="M71.5 -15.4C131.2 -40.5 200.6 -41.9 261.4 -19C322.2 3.89998 374.8 50.2 402 109.3C414.9 137.4 419.3 169 433.2 194.2C457 237.3 504.9 252 547.1 255.2C589.4 258.4 632.9 249.9 683.1 247.9C738.5 245.7 803.8 242.9 848 276.2C898 313.8 906.4 386.1 888.8 447.8C871.2 509.5 825.5 565 802.3 617.4C784.2 658.2 787.6 702.4 802.6 739.4C817.6 776.3 846.6 808.1 887.1 825.2" stroke="#ADB6FB" stroke-miterlimit="10"/>
<path d="M88.3 -19.1C147.5 -43.3 216.1 -43.9 275.9 -20.7C335.7 2.49997 387.4 48.7 413.7 107.4C426.6 136.2 430.2 168.5 443.6 194.7C465.7 237.9 511.3 254.1 551.8 259.3C592.4 264.6 635 255.7 684.6 257.7C740.2 259.9 805.8 252.8 851.1 285C902 321.2 912.8 393.1 896.2 455.1C879.6 517.1 833.2 572.8 808.2 623.7C789.2 662.5 791.4 704.6 804.2 740C817 775.5 843.2 806.7 881.7 824.4" stroke="#A8B3FB" stroke-miterlimit="10"/>
<path d="M105 -22.9C163.8 -46.1 231.6 -46 290.4 -22.4C349.3 1.09998 400 47.2 425.4 105.4C438.3 134.9 441.2 168 454 195C474.4 238.3 517.6 255.9 556.5 263.3C595.4 270.6 637.2 264 686.1 267.4C741.9 271.2 807.8 262.6 854.1 293.7C906 328.5 919.1 400 903.6 462.3C888.1 524.6 840.9 580.4 814.2 629.9C794.4 666.6 795.2 706.6 805.9 740.6C816.6 774.6 839.9 805.4 876.4 823.6" stroke="#A3B0FA" stroke-miterlimit="10"/>
<path d="M121.8 -26.7C180.2 -48.9 247.1 -48.1 305 -24.2C362.9 -0.300032 412.6 45.6 437.2 103.4C450 133.6 452.3 167.4 464.4 195.4C483.1 238.7 524 257.9 561.2 267.3C598.4 276.7 639.2 275.5 687.6 277.1C743.8 279 809.8 272.3 857.2 302.4C910 335.8 925.6 406.9 911.1 469.5C896.6 532.1 848.8 588 820.2 636.2C799.7 670.8 799.1 708.8 807.6 741.3C816.1 773.8 836.6 804.2 871.1 822.9" stroke="#9DADFA" stroke-miterlimit="10"/>
<path d="M138.5 -30.4C196.4 -51.6 262.5 -50 319.5 -25.9C376.5 -1.80001 425.2 44.1 448.9 101.5C461.7 132.4 463.4 166.9 474.8 195.9C491.9 239.3 530.3 260 565.9 271.4C601.4 282.8 641.2 284.1 689 286.9C745.4 290.2 811.7 282.2 860.1 311.1C913.8 343.2 931.8 413.7 918.4 476.7C905 539.7 856.5 595.6 826.1 642.4C804.9 675 802.9 710.8 809.2 741.8C815.5 772.8 833.2 802.7 865.7 822" stroke="#98AAF9" stroke-miterlimit="10"/>
<path d="M155.3 -34.2C212.8 -54.5 278 -52.1 334 -27.6C390 -3.10002 437.7 42.7 460.6 99.6C473.3 131.2 474.4 166.4 485.2 196.3C500.8 239.6 536.7 261.9 570.5 275.4C604.3 288.9 643.2 292.7 690.4 296.7C747.1 301.5 813.6 292.1 863 319.9C917.6 350.6 938 420.7 925.6 484.1C913.2 547.5 864.3 603.4 831.8 648.9C810.1 679.4 806.4 713.2 810.6 742.7C814.8 772.2 829.6 801.7 860.1 821.5" stroke="#93A7F9" stroke-miterlimit="10"/>
<path d="M172 -37.9C229 -57.2 293.4 -54.1 348.5 -29.3C403.6 -4.50001 450.2 41.2 472.2 97.7C484.9 130.1 485.4 165.9 495.5 196.8C509.6 240.1 543 264 575.1 279.5C607.3 295 645.2 301.4 691.8 306.5C748.7 312.7 815.4 302 866 328.7C921.5 358 944.3 427.7 933 491.4C921.7 555.1 872.3 611.1 837.8 655.2C815.5 683.7 810.3 715.3 812.3 743.4C814.3 771.5 826.3 800.5 854.8 820.8" stroke="#8EA4F9" stroke-miterlimit="10"/>
<path d="M188.8 -41.7C245.4 -60 309 -56.2 363.1 -31.1C417.2 -6.00003 462.8 39.7 484 95.6C496.6 128.7 496.7 165.2 505.9 197C518.5 240.3 549.3 265.8 579.8 283.4C610.3 301 647.3 309.9 693.3 316.1C750.5 323.8 817.4 311.7 869 337.3C925.4 365.3 950.7 434.4 940.4 498.5C930.1 562.6 880.4 618.7 843.8 661.4C821.1 687.9 814.2 717.4 814 743.9C813.8 770.5 823 799 849.5 820" stroke="#88A1F8" stroke-miterlimit="10"/>
<path d="M205.5 -45.5C261.6 -62.9 324.4 -58.3 377.6 -32.8C430.8 -7.30002 475.2 38.2 495.7 93.7C508.2 127.5 507.8 164.6 516.3 197.5C527.5 240.7 555.7 267.8 584.5 287.5C613.3 307.2 649.4 318.6 694.8 325.9C752.3 335.1 819.4 321.7 872.1 346.1C929.4 372.7 957.1 441.4 947.8 505.8C938.6 570.2 888.6 626.5 849.7 667.7C826.5 692.3 818 719.5 815.6 744.6C813.2 769.7 819.6 797.8 844.1 819.3" stroke="#839EF8" stroke-miterlimit="10"/>
<path d="M222.3 -49.2C278 -65.6 339.9 -60.3 392.1 -34.5C444.3 -8.70001 487.7 36.8 507.4 91.8C519.8 126.4 519 164.1 526.7 198C536.5 241.2 562.1 269.9 589.2 291.6C616.3 313.3 651.5 327.4 696.3 335.7C754 346.5 821.4 331.6 875.1 354.9C933.3 380.2 963.4 448.4 955.2 513.1C947 577.9 896.8 634.4 855.7 674.1C832.2 696.8 821.8 721.7 817.3 745.4C812.8 769 816.3 796.6 838.7 818.7" stroke="#7E9BF7" stroke-miterlimit="10"/>
<path d="M239 -53C294.2 -68.4 355.3 -62.4 406.6 -36.3C457.9 -10.2 500.1 35.2 519.1 89.8C531.4 125.1 530.2 163.5 537.1 198.3C545.5 241.5 568.4 271.8 593.8 295.5C619.2 319.3 653.4 335.9 697.7 345.3C755.6 357.6 823.3 341.3 878.1 363.5C937.2 387.4 969.7 455.1 962.6 520.3C955.5 585.5 905.1 642.3 861.6 680.3C837.7 701.1 825.6 723.8 818.9 745.9C812.2 768 812.9 795.2 833.3 817.8" stroke="#7898F7" stroke-miterlimit="10"/>
<path d="M255.7 -56.8C310.5 -71.2 370.7 -64.5 421.1 -38C471.5 -11.5 512.6 33.8 530.8 87.8C543 123.9 541.5 162.8 547.4 198.7C554.5 241.8 574.7 273.7 598.4 299.5C622.1 325.3 655.4 344.6 699.1 355.1C757.3 369 825.2 351.2 881 372.3C941 394.9 976 462.1 969.9 527.6C963.8 593.1 913.4 650.4 867.5 686.6C843.4 705.6 829.4 725.9 820.5 746.6C811.7 767.3 809.5 794 827.9 817.1" stroke="#7395F6" stroke-miterlimit="10"/>
<path d="M272.5 -60.5C326.9 -74 386.2 -66.4 435.7 -39.7C485.1 -13 525.1 32.4 542.6 85.9C554.7 122.7 552.9 162.3 557.9 199.1C563.7 242.2 581.1 275.7 603.2 303.6C625.3 331.5 657.6 353.4 700.7 364.9C759.1 380.4 827.2 361.2 884.2 381.1C945.1 402.4 982.5 469.1 977.4 534.9C972.4 600.7 922 658.6 873.6 693C849.2 710.3 833.3 728.2 822.3 747.4C811.3 766.6 806.3 792.8 822.7 816.5" stroke="#6E92F6" stroke-miterlimit="10"/>
<path d="M289.2 -64.3C343.2 -76.8 401.7 -68.5 450.2 -41.5C498.7 -14.4 537.5 30.9 554.3 83.9C566.2 121.5 564.3 161.7 568.3 199.5C572.9 242.6 587.5 277.7 607.9 307.6C628.3 337.5 659.6 362.1 702.1 374.6C760.7 391.8 829.1 371 887.1 389.8C948.9 409.8 988.7 476 984.7 542.1C980.7 608.2 930.4 666.9 879.4 699.2C854.7 714.8 837 730.2 823.8 747.9C810.6 765.6 802.8 791.4 817.2 815.6" stroke="#698EF5" stroke-miterlimit="10"/>
<path d="M306 -68.1C359.5 -79.6 417.2 -70.6 464.7 -43.2C512.2 -15.8 549.9 29.4 566 82C577.8 120.3 575.6 161.2 578.7 199.9C582.1 243 593.9 279.6 612.6 311.6C631.3 343.6 661.6 370.9 703.6 384.3C762.4 403.1 831.1 380.9 890.2 398.5C952.9 417.2 995.1 482.8 992.2 549.3C989.3 615.8 939.1 675.4 885.5 705.5C860.5 719.5 841 732.4 825.6 748.6C810.3 764.8 799.6 790.2 812 814.9" stroke="#638BF5" stroke-miterlimit="10"/>
<path d="M322.7 -71.8C375.7 -82.3 432.6 -72.6 479.2 -44.9C525.8 -17.2 562.2 28 577.7 80C589.3 119.1 587.1 160.6 589 200.3C591.2 243.4 600.2 281.6 617.2 315.6C634.2 349.6 663.6 379.6 705 394C763.9 414.5 833 390.7 893.1 407.2C956.7 424.6 1001.3 489.7 999.4 556.5C997.5 623.4 947.4 684 891.2 711.7C865.9 724.2 844.5 734.4 827 749.2C809.5 764 795.9 788.8 806.4 814.1" stroke="#5E88F4" stroke-miterlimit="10"/>
<path d="M339.5 -75.6C392.1 -85.2 448.1 -74.7 493.7 -46.7C539.3 -18.7 574.6 26.5 589.4 78C600.8 117.8 598.5 160 599.4 200.7C600.4 243.9 606.5 283.6 621.8 319.6C637.1 355.7 665.5 388.4 706.4 403.8C765.5 426 834.8 400.7 896 416C960.5 432.1 1007.6 496.7 1006.7 563.9C1005.8 631.1 955.8 693 897.1 718.2C871.5 729.2 848.3 736.8 828.6 750C808.9 763.3 792.5 787.7 801 813.5" stroke="#5985F4" stroke-miterlimit="10"/>
<path d="M356.2 -79.4C408.3 -88 463.5 -76.8 508.2 -48.4C552.9 -20.1 587 25 601.1 76.1C612.3 116.7 610 159.5 609.8 201.1C609.6 244.3 612.9 285.5 626.5 323.7C640.1 361.8 667.5 397.2 707.9 413.6C767.1 437.6 836.8 410.7 899.1 424.8C964.5 439.6 1014 503.6 1014.2 571.2C1014.4 638.8 964.5 701.9 903.2 724.4C877.3 733.9 852.3 738.8 830.4 750.6C808.5 762.4 789.3 786.3 795.8 812.8" stroke="#5482F3" stroke-miterlimit="10"/>
<path d="M373 -83.1C424.7 -90.7 479.1 -78.8 522.8 -50.1C566.5 -21.4 599.4 23.6 612.9 74.2C623.9 115.5 621.6 159.1 620.3 201.6C619 244.9 619.3 287.6 631.3 327.8C643.3 368 669.6 406.1 709.5 423.4C768.8 449.1 838.9 420.7 902.2 433.6C968.5 447.2 1020.4 510.6 1021.7 578.5C1023 646.4 973 711.2 909.2 730.9C882.9 739 856.1 741.2 832.1 751.5C808.1 761.8 786 785.3 790.5 812.3" stroke="#4E7FF3" stroke-miterlimit="10"/>
<path d="M389.7 -86.9C440.9 -93.6 494.5 -80.8 537.3 -51.9C580.1 -22.9 611.7 22.1 624.6 72.1C635.4 114.2 633.1 158.4 630.6 201.8C628.1 245.2 625.6 289.4 635.9 331.6C646.2 373.8 671.4 414.7 710.9 432.9C770.3 460.4 840.8 430.3 905.2 442.1C972.4 454.3 1026.7 517.3 1029 585.5C1031.3 653.7 981.3 720.2 915.1 736.9C888.3 743.7 859.9 743 833.7 751.8C807.5 760.6 782.6 783.7 785.1 811.2" stroke="#497CF2" stroke-miterlimit="10"/>
</g>
</svg>
