<svg xmlns="http://www.w3.org/2000/svg" xmlns:xlink="http://www.w3.org/1999/xlink" width="404.588" height="152.331" viewBox="0 0 404.588 152.331">
  <defs>
    <clipPath id="clip-path">
      <path id="Path_38" data-name="Path 38" d="M9377.8,304.426v7h-7.859v-7h-4.014v18h4.014v-7.732h7.859v7.732h4v-18Zm40.5,4.123,2.75,6.877h-5.484Zm-1.955-4.123-7.7,18h4.094l1.531-3.734h8.049l1.527,3.734h4.2l-7.75-18Zm41.764,1.155a8.537,8.537,0,0,0-3.359,3.218,9.417,9.417,0,0,0,0,9.267,8.414,8.414,0,0,0,3.359,3.2,9.763,9.763,0,0,0,4.779,1.154,10.638,10.638,0,0,0,4.078-.749,8,8,0,0,0,3.066-2.172l-2.564-2.452a5.458,5.458,0,0,1-4.361,2.109,5.649,5.649,0,0,1-2.859-.72,5.057,5.057,0,0,1-1.967-2.047,6.6,6.6,0,0,1,0-5.936,5.028,5.028,0,0,1,1.967-2.033,5.668,5.668,0,0,1,2.859-.734,5.36,5.36,0,0,1,4.361,2.235l2.564-2.563a8.246,8.246,0,0,0-3.051-2.172,10.58,10.58,0,0,0-4.062-.764,9.994,9.994,0,0,0-4.811,1.155m51.271-1.155-7.658,8.453v-8.453h-3.982v18h3.982v-4.53l2.33-2.422,5.533,6.952h4.668l-7.592-9.936,7.172-8.062Zm32.5.826a6.726,6.726,0,0,0-2.781,2.283l2.9,2.047a4.082,4.082,0,0,1,1.533-1.422,4.476,4.476,0,0,1,2.061-.47,3.252,3.252,0,0,1,2.066.579,2.067,2.067,0,0,1,.7,1.671,3.371,3.371,0,0,1-.377,1.517,7.588,7.588,0,0,1-1.436,1.811l-6.674,6.594v2.562h13.08V319.16h-7.436l3.982-3.859a10.837,10.837,0,0,0,2.3-2.892,6.423,6.423,0,0,0,.594-2.718,4.854,4.854,0,0,0-.812-2.781,5.259,5.259,0,0,0-2.25-1.829,8.14,8.14,0,0,0-3.377-.655,9.674,9.674,0,0,0-4.078.826m41.1-.109a5.644,5.644,0,0,0-2.471,1.954,4.807,4.807,0,0,0-.812,2.735,4.068,4.068,0,0,0,.906,2.781,5.082,5.082,0,0,0,2.156,1.516,28.5,28.5,0,0,0,3.252.936c.842.2,1.529.391,2.027.548a3.877,3.877,0,0,1,1.236.655,1.356,1.356,0,0,1,.484,1.033,1.578,1.578,0,0,1-.812,1.36,4.873,4.873,0,0,1-2.516.5,10.023,10.023,0,0,1-3.078-.486,8.545,8.545,0,0,1-2.643-1.3l-1.355,3.033a9.355,9.355,0,0,0,3.076,1.452,14,14,0,0,0,3.971.562,10.066,10.066,0,0,0,4.031-.717,5.65,5.65,0,0,0,2.484-1.938,4.781,4.781,0,0,0,.824-2.718,4.113,4.113,0,0,0-.9-2.767,5.474,5.474,0,0,0-2.172-1.483,28.1,28.1,0,0,0-3.219-.938,14.108,14.108,0,0,1-2.846-.86,1.392,1.392,0,0,1-.922-1.328,1.687,1.687,0,0,1,.8-1.438,4.561,4.561,0,0,1,2.5-.547,9.169,9.169,0,0,1,4.781,1.468l1.234-3.172a9.79,9.79,0,0,0-2.766-1.155,13.257,13.257,0,0,0-3.234-.405,10.164,10.164,0,0,0-4.014.717m50.158-.717-7.656,8.453v-8.453H9621.5v18h3.986v-4.53l2.326-2.422,5.531,6.952h4.67l-7.592-9.936,7.172-8.062Zm31.66,18h4.018v-18H9664.8Zm33.123-18v18h12.686V319.16h-8.672V304.426Zm39.943,0v18h12.684V319.16h-8.67V304.426Z" transform="translate(-9365.928 -304.426)" fill="none"/>
    </clipPath>
    <clipPath id="clip-path-2">
      <rect id="Rectangle_100" data-name="Rectangle 100" width="448.215" height="186.884" fill="none"/>
    </clipPath>
    <clipPath id="clip-path-3">
      <path id="Path_39" data-name="Path 39" d="M9357.344,296.225H9391.4V240.4h-34.061Zm100.887,0h34.051V240.4H9458.23Zm75.447-51.085a58.339,58.339,0,0,0-23.75,20.061l24.814,15.985a33.285,33.285,0,0,1,13.012-11.031,40.321,40.321,0,0,1,17.455-3.688q11.552,0,17.547,4.733t6,13.548a26.675,26.675,0,0,1-2.75,11.477h34.908a52.2,52.2,0,0,0,2.094-14.837q0-13.218-6.828-23a44.37,44.37,0,0,0-19.125-15.139q-12.3-5.344-28.687-5.359-19.547,0-34.687,7.25m136.719-1.157q-13.966,6.093-20.9,16.5a40.977,40.977,0,0,0-6.937,23.219,43.361,43.361,0,0,0,1.688,12.524h47.732a67.209,67.209,0,0,1-7.7-2.945q-7.878-3.683-7.877-11.251c0-5.046,2.266-9.109,6.83-12.2q6.817-4.617,21.123-4.624,20.367,0,40.766,11.563l10.518-25.844a81.737,81.737,0,0,0-23.547-9.673,113.62,113.62,0,0,0-27.533-3.357q-20.183,0-34.158,6.093" transform="translate(-9357.344 -237.89)" fill="none"/>
    </clipPath>
    <clipPath id="clip-path-4">
      <rect id="Rectangle_102" data-name="Rectangle 102" width="467.601" height="263.201" fill="#fff"/>
    </clipPath>
    <clipPath id="clip-path-5">
      <path id="Path_40" data-name="Path 40" d="M9357.1,387.7h34.063V330.136H9357.1Zm100.893,0h34.045V330.136h-34.045Zm96.027-57.569-37.6,35.507V387.7H9627.6V359.956h-63.264l31.584-29.82Zm149.732,0q5.575,1.44,9.482,2.726a31.129,31.129,0,0,1,10.516,5.563,10.945,10.945,0,0,1,4.109,8.719q0,7.148-6.937,11.452t-21.437,4.314a84.237,84.237,0,0,1-26.064-4.2,78.566,78.566,0,0,1-22.5-11.142l-11.545,25.641q9.87,7.569,26.154,12.3a120.891,120.891,0,0,0,33.738,4.717q20.174,0,34.266-6.093,14.06-6.094,21.1-16.486a40.2,40.2,0,0,0,7.051-23.015,40.8,40.8,0,0,0-2.383-14.491Z" transform="translate(-9357.097 -330.136)" fill="none"/>
    </clipPath>
    <clipPath id="clip-path-6">
      <rect id="Rectangle_104" data-name="Rectangle 104" width="467.601" height="263.201" fill="none"/>
    </clipPath>
  </defs>
  <g id="hack2skill_white_logo" data-name="hack2skill white logo" transform="translate(0 0)">
    <g id="Group_387" data-name="Group 387" transform="translate(0 0)">
      <g id="Group_185" data-name="Group 185" transform="translate(8.831 66.536)">
        <g id="Group_184" data-name="Group 184" clip-path="url(#clip-path)">
          <g id="Group_183" data-name="Group 183" transform="translate(-2.205 -97.767)">
            <g id="Group_182" data-name="Group 182" clip-path="url(#clip-path-2)">
              <rect id="Rectangle_99" data-name="Rectangle 99" width="186.884" height="447.804" transform="translate(448.215 0) rotate(90)" fill="#fff"/>
            </g>
          </g>
        </g>
      </g>
      <g id="Group_189" data-name="Group 189" transform="translate(0.246 0)">
        <g id="Group_188" data-name="Group 188" clip-path="url(#clip-path-3)">
          <g id="Group_187" data-name="Group 187" transform="translate(-6.415 -28.129)">
            <g id="Group_186" data-name="Group 186" clip-path="url(#clip-path-4)">
              <rect id="Rectangle_101" data-name="Rectangle 101" width="263.201" height="467.433" transform="translate(467.6 0) rotate(90)" fill="#fff"/>
            </g>
          </g>
        </g>
      </g>
      <g id="Group_193" data-name="Group 193" transform="translate(0 92.246)">
        <g id="Group_192" data-name="Group 192" clip-path="url(#clip-path-5)">
          <g id="Group_191" data-name="Group 191" transform="translate(-6.415 -120.197)">
            <g id="Group_190" data-name="Group 190" clip-path="url(#clip-path-6)">
              <rect id="Rectangle_103" data-name="Rectangle 103" width="263.201" height="467.433" transform="translate(467.6) rotate(90)" fill="#fff"/>
            </g>
          </g>
        </g>
      </g>
    </g>
  </g>
</svg>
