<svg width="25" height="36" viewBox="0 0 25 36" fill="none" xmlns="http://www.w3.org/2000/svg">
<path d="M24.2729 8.09633L13.2271 11.2299C12.7969 11.3519 12.5 11.7448 12.5 12.1919V16.3895C12.5 17.0311 13.0956 17.5067 13.7213 17.3647L23.7787 15.0821C24.4044 14.9401 25 15.4158 25 16.0573V28.2336C25 28.6808 24.7031 29.0736 24.2729 29.1956L1.27292 35.7204C0.634511 35.9016 0 35.422 0 34.7584V29.736C0 29.2932 0.291292 28.9031 0.715912 28.7772L11.2522 25.6554C11.6768 25.5296 11.9681 25.1395 11.9681 24.6966V19.9186C11.9681 19.2616 11.3453 18.7831 10.7104 18.9524L1.25766 21.4731C0.622816 21.6424 0 21.1639 0 20.5069V7.7619C0 7.31351 0.298472 6.91993 0.730243 6.79897L23.7302 0.355712C24.3679 0.17707 25 0.656406 25 1.31864V7.1343C25 7.58147 24.7031 7.97429 24.2729 8.09633Z" fill="#D9D9D9"/>
</svg>
