<svg width="141" height="204" viewBox="0 0 141 204" fill="none" xmlns="http://www.w3.org/2000/svg">
<mask id="mask0_15_18" style="mask-type:alpha" maskUnits="userSpaceOnUse" x="0" y="1" width="141" height="202">
<path d="M138.092 45.3251L73.4083 63.6749C71.6875 64.1631 70.5 65.7344 70.5 67.5231V94.4905C70.5 97.0569 72.8826 98.9593 75.3853 98.3913L136.115 84.6087C138.617 84.0407 141 85.9431 141 88.5095V160.477C141 162.266 139.812 163.837 138.092 164.325L5.09167 202.056C2.53805 202.78 0 200.862 0 198.207V166.487C0 164.715 1.16517 163.155 2.86365 162.652L64.6364 144.348C66.3348 143.845 67.5 142.285 67.5 140.513V110.206C67.5 107.578 65.0087 105.664 62.4694 106.342L5.03065 121.658C2.49126 122.336 0 120.422 0 117.794V42.5334C0 40.7399 1.1939 39.1655 2.92098 38.6817L135.921 1.42285C138.472 0.708281 141 2.62563 141 5.27456V41.4769C141 43.2656 139.812 44.8369 138.092 45.3251Z" fill="#D9D9D9"/>
</mask>
<g mask="url(#mask0_15_18)">
<path d="M74.5 18.5L70.5 64.5L141 45V0L74.5 18.5Z" fill="#2D0E4E"/>
<path d="M0 73.5L70.5 64.5L74.5 18.5L0 39.5V73.5Z" fill="#8024DA"/>
<path d="M0 123V73.5L70.5 64.5V99.5L67.5 105L0 123Z" fill="#52158D"/>
<path d="M67.5 105L70.5 99.5L141 83.5V128L67.5 143.5V105Z" fill="#51178E"/>
<path d="M84.5 179.5L67.5 143.5L141 128V163.5L84.5 179.5Z" fill="#7F25DB"/>
<path d="M0 163.5L67.5 143.5L84.5 179.5L0 203.5V163.5Z" fill="#2E0E49"/>
</g>
</svg>
