<svg width="174" height="239" viewBox="0 0 174 239" fill="none" xmlns="http://www.w3.org/2000/svg">
<g filter="url(#filter0_f_21_12)">
<path d="M159.819 58.9592L89.1812 78.9982C87.8906 79.3644 87 80.5428 87 81.8843V113.094C87 115.019 88.7869 116.446 90.664 116.02L158.336 100.661C160.213 100.235 162 101.662 162 103.587V182.669C162 184.01 161.109 185.189 159.819 185.555L15.8188 226.406C13.9035 226.949 12 225.511 12 223.52V187.176C12 185.848 12.8739 184.677 14.1477 184.3L81.6608 164.296C82.9346 163.919 83.8085 162.748 83.8085 161.42V126.607C83.8085 124.636 81.9401 123.2 80.0355 123.708L15.773 140.845C13.8684 141.353 12 139.917 12 137.946V55.2963C12 53.9512 12.8954 52.7704 14.1907 52.4076L158.191 12.0671C160.104 11.5312 162 12.9692 162 14.9559V56.0731C162 57.4146 161.109 58.5931 159.819 58.9592Z" stroke="#CA95FE" stroke-width="3"/>
</g>
<mask id="mask0_21_12" style="mask-type:alpha" maskUnits="userSpaceOnUse" x="17" y="18" width="141" height="202">
<path d="M155.092 62.3251L90.4083 80.6749C88.6875 81.1631 87.5 82.7344 87.5 84.5231V111.49C87.5 114.057 89.8826 115.959 92.3853 115.391L153.115 101.609C155.617 101.041 158 102.943 158 105.51V177.477C158 179.266 156.812 180.837 155.092 181.325L22.0917 219.056C19.538 219.78 17 217.862 17 215.207V183.487C17 181.715 18.1652 180.155 19.8636 179.652L81.6364 161.348C83.3348 160.845 84.5 159.285 84.5 157.513V127.206C84.5 124.578 82.0087 122.664 79.4694 123.342L22.0307 138.658C19.4913 139.336 17 137.422 17 134.794V59.5334C17 57.7399 18.1939 56.1655 19.921 55.6817L152.921 18.4228C155.472 17.7083 158 19.6256 158 22.2746V58.4769C158 60.2656 156.812 61.8369 155.092 62.3251Z" fill="#D9D9D9"/>
</mask>
<g mask="url(#mask0_21_12)">
<path d="M91.5 35.5L87.5 81.5L158 62V17L91.5 35.5Z" fill="#2D0E4E"/>
<path d="M17 90.5L87.5 81.5L91.5 35.5L17 56.5V90.5Z" fill="#8024DA"/>
<path d="M17 140V90.5L87.5 81.5V116.5L84.5 122L17 140Z" fill="#52158D"/>
<path d="M84.5 122L87.5 116.5L158 100.5V145L84.5 160.5V122Z" fill="#51178E"/>
<path d="M101.5 196.5L84.5 160.5L158 145V180.5L101.5 196.5Z" fill="#7F25DB"/>
<path d="M17 180.5L84.5 160.5L101.5 196.5L17 220.5V180.5Z" fill="#2E0E49"/>
</g>
<defs>
<filter id="filter0_f_21_12" x="0.5" y="0.453369" width="173" height="237.569" filterUnits="userSpaceOnUse" color-interpolation-filters="sRGB">
<feFlood flood-opacity="0" result="BackgroundImageFix"/>
<feBlend mode="normal" in="SourceGraphic" in2="BackgroundImageFix" result="shape"/>
<feGaussianBlur stdDeviation="5" result="effect1_foregroundBlur_21_12"/>
</filter>
</defs>
</svg>
